<svg width="108" height="13" viewBox="0 0 108 13" fill="none" xmlns="http://www.w3.org/2000/svg">
<path d="M11.25 0H1.125C0.503438 0 0 0.492324 0 1.10016V11.0016C0 11.6095 0.503438 12.1018 1.125 12.1018H6.75V7.15107H5.0625V5.50082H6.75V4.61464C6.75 2.93689 7.58588 2.20033 9.01181 2.20033C9.69469 2.20033 10.0558 2.24984 10.2268 2.27239V3.85057H9.25425C8.649 3.85057 8.4375 4.16302 8.4375 4.79562V5.50082H10.2116L9.97087 7.15107H8.4375V12.1018H11.25C11.8716 12.1018 12.375 11.6095 12.375 11.0016V1.10016C12.375 0.492324 11.871 0 11.25 0Z" fill="#FBF598"/>
<path d="M27.5471 4.20223L27.2365 6.79052C27.2234 6.88584 27.2135 6.97786 27.207 7.06661C27.2037 7.15206 27.202 7.23258 27.202 7.30818C27.202 7.55468 27.3039 7.67793 27.5077 7.67793C27.7936 7.67793 28.0533 7.4758 28.2867 7.07154C28.5167 6.67384 28.6318 6.22028 28.6318 5.71083C28.6318 4.9023 28.3491 4.24003 27.7838 3.72401C27.2218 3.20143 26.5036 2.94013 25.6293 2.94013C24.7156 2.94013 23.9465 3.25237 23.3221 3.87685C22.7009 4.49804 22.3903 5.26713 22.3903 6.18412C22.3903 6.69028 22.502 7.18657 22.7255 7.673C22.9523 8.12986 23.2695 8.50619 23.677 8.80199C24.2226 9.1964 24.9063 9.3936 25.7279 9.3936C26.497 9.3936 27.3023 9.19804 28.1437 8.80692L28.2176 8.76748L28.474 9.47741L28.4148 9.50699C27.557 9.92112 26.663 10.1282 25.7329 10.1282C24.7041 10.1282 23.843 9.88003 23.1495 9.38374C22.6401 9.0222 22.2424 8.56042 21.9564 7.99839C21.6738 7.40678 21.5324 6.80531 21.5324 6.19398C21.5324 5.07979 21.9252 4.14471 22.7107 3.38877C23.4963 2.63282 24.4658 2.25485 25.6195 2.25485C26.6811 2.25485 27.5701 2.58024 28.2867 3.23101C28.9999 3.8752 29.3565 4.68209 29.3565 5.65167C29.3565 6.40105 29.1626 7.0436 28.7747 7.57933C28.3836 8.12164 27.9251 8.3928 27.3992 8.3928C26.9785 8.3928 26.6926 8.19395 26.5414 7.79626C26.1371 8.21038 25.6869 8.41745 25.1906 8.41745C24.6483 8.41745 24.1963 8.22189 23.8348 7.83077C23.4798 7.44293 23.3023 6.94828 23.3023 6.34681C23.3023 5.69933 23.5012 5.16688 23.8989 4.74947C24.2966 4.3222 24.7962 4.10856 25.3976 4.10856C25.9498 4.10856 26.3951 4.3222 26.7337 4.74947L26.8027 4.20223H27.5471ZM26.5414 6.10524C26.5414 5.79958 26.4379 5.54486 26.2308 5.34108C26.0172 5.1373 25.7575 5.03541 25.4519 5.03541C25.1199 5.03541 24.8487 5.1636 24.6384 5.41996C24.4248 5.67304 24.3179 5.99678 24.3179 6.39119C24.3179 6.733 24.4034 7.01402 24.5743 7.23423C24.7452 7.45444 24.9654 7.56454 25.2349 7.56454C25.58 7.56454 25.8841 7.41828 26.147 7.12577C26.4099 6.83325 26.5414 6.49307 26.5414 6.10524ZM31.7032 12.6129H30.5939V5.19811H31.7032V5.7207C32.1403 5.28356 32.6366 5.065 33.1921 5.065C33.8527 5.065 34.3967 5.30821 34.8239 5.79465C35.2578 6.27779 35.4747 6.88748 35.4747 7.6237C35.4747 8.34349 35.2594 8.94332 34.8289 9.42318C34.4016 9.89976 33.8626 10.138 33.2118 10.138C32.6498 10.138 32.1469 9.9129 31.7032 9.46262V12.6129ZM34.3408 7.62863C34.3408 7.16849 34.2159 6.79381 33.9661 6.50458C33.713 6.21206 33.3942 6.0658 33.0097 6.0658C32.6021 6.0658 32.2718 6.20713 32.0187 6.48979C31.7656 6.77244 31.6391 7.14384 31.6391 7.60398C31.6391 8.05426 31.7656 8.42566 32.0187 8.71818C32.2685 9.00412 32.5972 9.1471 33.0047 9.1471C33.3893 9.1471 33.7064 9.00248 33.9562 8.71325C34.2126 8.42402 34.3408 8.06248 34.3408 7.62863ZM36.4213 7.56454C36.4213 6.87105 36.6694 6.28108 37.1657 5.79465C37.662 5.30821 38.2668 5.065 38.98 5.065C39.6965 5.065 40.3045 5.30986 40.8041 5.79958C41.2971 6.2893 41.5436 6.89077 41.5436 7.60398C41.5436 8.32377 41.2955 8.92689 40.7992 9.41332C40.2996 9.89647 39.6866 10.138 38.9603 10.138C38.2405 10.138 37.6374 9.89154 37.1509 9.39853C36.6645 8.9121 36.4213 8.30077 36.4213 7.56454ZM37.5552 7.58426C37.5552 8.06412 37.6834 8.44374 37.9397 8.72311C38.2027 9.00577 38.5494 9.1471 38.98 9.1471C39.4138 9.1471 39.7606 9.00741 40.0202 8.72804C40.2799 8.44867 40.4097 8.07563 40.4097 7.60891C40.4097 7.1422 40.2799 6.76916 40.0202 6.48979C39.7573 6.20713 39.4105 6.0658 38.98 6.0658C38.556 6.0658 38.2125 6.20713 37.9496 6.48979C37.6867 6.77244 37.5552 7.13727 37.5552 7.58426ZM45.5123 6.0165L44.5953 6.50458C44.4507 6.20877 44.2716 6.06087 44.058 6.06087C43.9561 6.06087 43.869 6.09538 43.7967 6.1644C43.7244 6.23014 43.6882 6.31559 43.6882 6.42077C43.6882 6.60482 43.9018 6.78723 44.3291 6.968C44.9174 7.22108 45.3135 7.45444 45.5173 7.66807C45.721 7.88171 45.8229 8.1693 45.8229 8.53084C45.8229 8.99426 45.652 9.3821 45.3102 9.69434C44.9782 9.99014 44.5773 10.138 44.1073 10.138C43.302 10.138 42.7318 9.74528 42.3965 8.95975L43.3431 8.52098C43.4746 8.75105 43.5748 8.89731 43.6438 8.95975C43.7786 9.08465 43.9396 9.1471 44.127 9.1471C44.5017 9.1471 44.689 8.97619 44.689 8.63437C44.689 8.43717 44.5444 8.25311 44.2552 8.0822C44.1434 8.02633 44.0317 7.9721 43.9199 7.91951C43.8082 7.86692 43.6948 7.81269 43.5797 7.75682C43.2576 7.59905 43.0309 7.44129 42.8994 7.28353C42.7318 7.08304 42.648 6.82503 42.648 6.50951C42.648 6.09209 42.7909 5.74699 43.0769 5.47419C43.3694 5.20139 43.7244 5.065 44.1418 5.065C44.7564 5.065 45.2132 5.38216 45.5123 6.0165ZM47.9675 6.23342V10H46.8582V6.23342H46.385V5.19811H46.8582V3.43807H47.9675V5.19811H48.8303V6.23342H47.9675ZM49.5846 5.19811H50.6938V5.64181C50.9075 5.41832 51.0899 5.26713 51.2411 5.18825C51.4021 5.10608 51.6043 5.065 51.8475 5.065C52.3898 5.065 52.8187 5.30164 53.1342 5.77493C53.4826 5.30164 53.9543 5.065 54.5492 5.065C55.6305 5.065 56.1712 5.7207 56.1712 7.03209V10H55.057V7.33283C55.057 6.87269 55.0011 6.5473 54.8893 6.35667C54.7743 6.16276 54.5853 6.0658 54.3224 6.0658C54.0167 6.0658 53.7932 6.18084 53.6519 6.41091C53.5138 6.64098 53.4448 7.01073 53.4448 7.52017V10H52.3306V7.34762C52.3306 6.49307 52.0841 6.0658 51.5911 6.0658C51.2789 6.0658 51.0504 6.18248 50.9058 6.41584C50.7645 6.64919 50.6938 7.0173 50.6938 7.52017V10H49.5846V5.19811ZM57.3445 7.56454C57.3445 6.87105 57.5927 6.28108 58.089 5.79465C58.5852 5.30821 59.19 5.065 59.9032 5.065C60.6197 5.065 61.2278 5.30986 61.7273 5.79958C62.2204 6.2893 62.4669 6.89077 62.4669 7.60398C62.4669 8.32377 62.2187 8.92689 61.7224 9.41332C61.2228 9.89647 60.6099 10.138 59.8835 10.138C59.1637 10.138 58.5606 9.89154 58.0742 9.39853C57.5877 8.9121 57.3445 8.30077 57.3445 7.56454ZM58.4784 7.58426C58.4784 8.06412 58.6066 8.44374 58.863 8.72311C59.1259 9.00577 59.4727 9.1471 59.9032 9.1471C60.3371 9.1471 60.6838 9.00741 60.9435 8.72804C61.2031 8.44867 61.3329 8.07563 61.3329 7.60891C61.3329 7.1422 61.2031 6.76916 60.9435 6.48979C60.6805 6.20713 60.3338 6.0658 59.9032 6.0658C59.4792 6.0658 59.1358 6.20713 58.8728 6.48979C58.6099 6.77244 58.4784 7.13727 58.4784 7.58426ZM67.1849 1.6731H68.2991V10H67.1849V9.49713C66.7478 9.92441 66.2532 10.138 65.701 10.138C65.0436 10.138 64.498 9.89811 64.0642 9.41825C63.6336 8.92853 63.4184 8.3172 63.4184 7.58426C63.4184 6.86776 63.6336 6.26958 64.0642 5.78972C64.4915 5.30657 65.0289 5.065 65.6763 5.065C66.2384 5.065 66.7412 5.29507 67.1849 5.75521V1.6731ZM64.5523 7.58426C64.5523 8.0444 64.6755 8.41909 64.922 8.70832C65.1751 9.00084 65.4939 9.1471 65.8785 9.1471C66.2893 9.1471 66.6213 9.00577 66.8743 8.72311C67.1274 8.43059 67.254 8.05919 67.254 7.60891C67.254 7.15863 67.1274 6.78723 66.8743 6.49472C66.6213 6.20877 66.2926 6.0658 65.8883 6.0658C65.5071 6.0658 65.1883 6.21042 64.9319 6.49965C64.6788 6.79216 64.5523 7.1537 64.5523 7.58426ZM70.8085 12.6129H69.6993V5.19811H70.8085V5.7207C71.2457 5.28356 71.742 5.065 72.2974 5.065C72.9581 5.065 73.502 5.30821 73.9293 5.79465C74.3631 6.27779 74.5801 6.88748 74.5801 7.6237C74.5801 8.34349 74.3648 8.94332 73.9342 9.42318C73.5069 9.89976 72.9679 10.138 72.3171 10.138C71.7551 10.138 71.2523 9.9129 70.8085 9.46262V12.6129ZM73.4461 7.62863C73.4461 7.16849 73.3212 6.79381 73.0714 6.50458C72.8184 6.21206 72.4996 6.0658 72.115 6.0658C71.7075 6.0658 71.3771 6.20713 71.1241 6.48979C70.871 6.77244 70.7445 7.14384 70.7445 7.60398C70.7445 8.05426 70.871 8.42566 71.1241 8.71818C71.3739 9.00412 71.7025 9.1471 72.1101 9.1471C72.4946 9.1471 72.8118 9.00248 73.0616 8.71325C73.318 8.42402 73.4461 8.06248 73.4461 7.62863ZM80.3975 9.88661C80.3975 10.1134 80.3893 10.3122 80.3729 10.4831C80.3597 10.6573 80.34 10.8102 80.3137 10.9416C80.2348 11.3032 80.0804 11.6138 79.8503 11.8734C79.4165 12.373 78.8199 12.6228 78.0607 12.6228C77.4198 12.6228 76.8923 12.4502 76.4781 12.1051C76.0509 11.7502 75.8044 11.2588 75.7386 10.631H76.8528C76.8955 10.8677 76.9662 11.0501 77.0648 11.1783C77.2949 11.4774 77.6301 11.6269 78.0705 11.6269C78.8824 11.6269 79.2883 11.129 79.2883 10.1331V9.46262C78.8479 9.9129 78.3401 10.138 77.7649 10.138C77.1108 10.138 76.5751 9.9014 76.1577 9.42811C75.737 8.94825 75.5266 8.34842 75.5266 7.62863C75.5266 6.92856 75.7222 6.33367 76.1133 5.84395C76.534 5.32465 77.0895 5.065 77.7797 5.065C78.3844 5.065 78.8873 5.29014 79.2883 5.74042V5.19811H80.3975V9.88661ZM79.3326 7.60891C79.3326 7.1422 79.2078 6.76916 78.958 6.48979C78.7049 6.20384 78.3811 6.06087 77.9867 6.06087C77.566 6.06087 77.2341 6.21699 76.9909 6.52923C76.7707 6.8086 76.6605 7.17014 76.6605 7.61384C76.6605 8.05098 76.7707 8.40923 76.9909 8.6886C77.2308 8.99426 77.5627 9.1471 77.9867 9.1471C78.4107 9.1471 78.746 8.99262 78.9925 8.68367C79.2193 8.4043 79.3326 8.04605 79.3326 7.60891Z" fill="#FBF598"/>
</svg>
