<svg width="108" height="13" viewBox="0 0 108 13" fill="none" xmlns="http://www.w3.org/2000/svg">
<path d="M3.60837 0C1.61857 0 0 1.5843 0 3.53068V8.5731C0 10.519 1.62007 12.1018 3.61038 12.1018H8.76663C10.7564 12.1018 12.375 10.5175 12.375 8.57113V3.52871C12.375 1.58284 10.7549 0 8.76462 0H3.60837ZM9.79688 2.01697C10.0815 2.01697 10.3125 2.24287 10.3125 2.52121C10.3125 2.79955 10.0815 3.02545 9.79688 3.02545C9.51225 3.02545 9.28125 2.79955 9.28125 2.52121C9.28125 2.24287 9.51225 2.01697 9.79688 2.01697ZM6.1875 3.02545C7.8937 3.02545 9.28125 4.38237 9.28125 6.0509C9.28125 7.71944 7.8937 9.07635 6.1875 9.07635C4.4813 9.07635 3.09375 7.71944 3.09375 6.0509C3.09375 4.38237 4.4813 3.02545 6.1875 3.02545ZM6.1875 4.03394C5.64049 4.03394 5.11589 4.24644 4.72909 4.62469C4.3423 5.00295 4.125 5.51597 4.125 6.0509C4.125 6.58584 4.3423 7.09886 4.72909 7.47711C5.11589 7.85537 5.64049 8.06787 6.1875 8.06787C6.73451 8.06787 7.25911 7.85537 7.64591 7.47711C8.0327 7.09886 8.25 6.58584 8.25 6.0509C8.25 5.51597 8.0327 5.00295 7.64591 4.62469C7.25911 4.24644 6.73451 4.03394 6.1875 4.03394Z" fill="#FBF598"/>
<path d="M23.0608 6.90884V10H21.9121V2.38796H23.2136C23.8512 2.38796 24.3327 2.43234 24.6581 2.52108C24.9868 2.60982 25.276 2.77744 25.5258 3.02394C25.9629 3.45122 26.1815 3.99024 26.1815 4.64101C26.1815 5.33779 25.9482 5.88996 25.4814 6.29751C25.0147 6.70507 24.3853 6.90884 23.5932 6.90884H23.0608ZM23.0608 5.84395H23.4897C24.5447 5.84395 25.0722 5.43804 25.0722 4.62622C25.0722 3.84069 24.5283 3.44793 23.4404 3.44793H23.0608V5.84395ZM26.6301 7.56454C26.6301 6.87105 26.8783 6.28108 27.3746 5.79465C27.8709 5.30821 28.4756 5.065 29.1889 5.065C29.9054 5.065 30.5134 5.30986 31.013 5.79958C31.506 6.2893 31.7525 6.89077 31.7525 7.60398C31.7525 8.32377 31.5043 8.92689 31.0081 9.41332C30.5085 9.89647 29.8955 10.138 29.1691 10.138C28.4493 10.138 27.8462 9.89154 27.3598 9.39853C26.8734 8.9121 26.6301 8.30077 26.6301 7.56454ZM27.7641 7.58426C27.7641 8.06412 27.8922 8.44374 28.1486 8.72311C28.4115 9.00577 28.7583 9.1471 29.1889 9.1471C29.6227 9.1471 29.9694 9.00741 30.2291 8.72804C30.4888 8.44867 30.6186 8.07563 30.6186 7.60891C30.6186 7.1422 30.4888 6.76916 30.2291 6.48979C29.9662 6.20713 29.6194 6.0658 29.1889 6.0658C28.7649 6.0658 28.4214 6.20713 28.1585 6.48979C27.8955 6.77244 27.7641 7.13727 27.7641 7.58426ZM35.7212 6.0165L34.8042 6.50458C34.6596 6.20877 34.4805 6.06087 34.2668 6.06087C34.1649 6.06087 34.0778 6.09538 34.0055 6.1644C33.9332 6.23014 33.8971 6.31559 33.8971 6.42077C33.8971 6.60482 34.1107 6.78723 34.538 6.968C35.1263 7.22108 35.5224 7.45444 35.7261 7.66807C35.9299 7.88171 36.0318 8.1693 36.0318 8.53084C36.0318 8.99426 35.8609 9.3821 35.5191 9.69434C35.1871 9.99014 34.7861 10.138 34.3161 10.138C33.5109 10.138 32.9406 9.74528 32.6054 8.95975L33.552 8.52098C33.6834 8.75105 33.7837 8.89731 33.8527 8.95975C33.9875 9.08465 34.1485 9.1471 34.3359 9.1471C34.7105 9.1471 34.8979 8.97619 34.8979 8.63437C34.8979 8.43717 34.7533 8.25311 34.464 8.0822C34.3523 8.02633 34.2405 7.9721 34.1288 7.91951C34.017 7.86692 33.9036 7.81269 33.7886 7.75682C33.4665 7.59905 33.2397 7.44129 33.1083 7.28353C32.9406 7.08304 32.8568 6.82503 32.8568 6.50951C32.8568 6.09209 32.9998 5.74699 33.2857 5.47419C33.5783 5.20139 33.9332 5.065 34.3506 5.065C34.9653 5.065 35.4221 5.38216 35.7212 6.0165ZM38.1764 6.23342V10H37.0671V6.23342H36.5938V5.19811H37.0671V3.43807H38.1764V5.19811H39.0391V6.23342H38.1764ZM39.7392 10L41.3415 1.81608L43.9544 7.73217L46.661 1.81608L48.1006 10H46.9223L46.1878 5.40517L43.9347 10.35L41.7458 5.40024L40.9274 10H39.7392ZM49.2789 7.56454C49.2789 6.87105 49.5271 6.28108 50.0234 5.79465C50.5196 5.30821 51.1244 5.065 51.8376 5.065C52.5541 5.065 53.1622 5.30986 53.6617 5.79958C54.1548 6.2893 54.4013 6.89077 54.4013 7.60398C54.4013 8.32377 54.1531 8.92689 53.6568 9.41332C53.1572 9.89647 52.5443 10.138 51.8179 10.138C51.0981 10.138 50.495 9.89154 50.0086 9.39853C49.5221 8.9121 49.2789 8.30077 49.2789 7.56454ZM50.4128 7.58426C50.4128 8.06412 50.541 8.44374 50.7974 8.72311C51.0603 9.00577 51.4071 9.1471 51.8376 9.1471C52.2715 9.1471 52.6182 9.00741 52.8779 8.72804C53.1375 8.44867 53.2673 8.07563 53.2673 7.60891C53.2673 7.1422 53.1375 6.76916 52.8779 6.48979C52.6149 6.20713 52.2682 6.0658 51.8376 6.0658C51.4136 6.0658 51.0702 6.20713 50.8072 6.48979C50.5443 6.77244 50.4128 7.13727 50.4128 7.58426ZM59.1193 1.6731H60.2335V10H59.1193V9.49713C58.6822 9.92441 58.1876 10.138 57.6354 10.138C56.978 10.138 56.4324 9.89811 55.9986 9.41825C55.568 8.92853 55.3528 8.3172 55.3528 7.58426C55.3528 6.86776 55.568 6.26958 55.9986 5.78972C56.4259 5.30657 56.9633 5.065 57.6107 5.065C58.1728 5.065 58.6756 5.29507 59.1193 5.75521V1.6731ZM56.4867 7.58426C56.4867 8.0444 56.6099 8.41909 56.8564 8.70832C57.1095 9.00084 57.4283 9.1471 57.8129 9.1471C58.2237 9.1471 58.5557 9.00577 58.8087 8.72311C59.0618 8.43059 59.1884 8.05919 59.1884 7.60891C59.1884 7.15863 59.0618 6.78723 58.8087 6.49472C58.5557 6.20877 58.227 6.0658 57.8227 6.0658C57.4415 6.0658 57.1227 6.21042 56.8663 6.49965C56.6132 6.79216 56.4867 7.1537 56.4867 7.58426ZM64.9615 10V1.87031L70.5127 7.67793V2.38796H71.6614V10.4634L66.1102 4.67059V10H64.9615ZM77.7698 7.86035H74.3286C74.3582 8.25475 74.4864 8.56863 74.7132 8.80199C74.9399 9.03206 75.2308 9.1471 75.5858 9.1471C75.8619 9.1471 76.0903 9.08136 76.2711 8.94989C76.4485 8.81843 76.6507 8.57521 76.8775 8.22024L77.8142 8.74283C77.6696 8.98933 77.5167 9.20133 77.3557 9.37881C77.1946 9.55301 77.0221 9.69762 76.838 9.81266C76.654 9.92441 76.4551 10.0066 76.2415 10.0592C76.0278 10.1117 75.7961 10.138 75.5463 10.138C74.8298 10.138 74.2547 9.90797 73.8208 9.44783C73.387 8.9844 73.17 8.36979 73.17 7.60398C73.17 6.84475 73.3804 6.23014 73.8011 5.76014C74.2251 5.29671 74.7871 5.065 75.4872 5.065C76.1938 5.065 76.7526 5.29014 77.1634 5.74042C77.571 6.18741 77.7747 6.80695 77.7747 7.59905L77.7698 7.86035ZM76.631 6.95321C76.4765 6.3616 76.1034 6.0658 75.5118 6.0658C75.3771 6.0658 75.2505 6.08716 75.1322 6.12989C75.0139 6.16933 74.9054 6.22849 74.8068 6.30737C74.7115 6.38297 74.6294 6.475 74.5603 6.58346C74.4913 6.69192 74.4387 6.81517 74.4026 6.95321H76.631ZM79.4312 5.19811L80.6884 7.93923L82.0442 4.75933L83.4098 7.93923L84.6522 5.19811H85.8946L83.3802 10.3599L82.0442 7.26874L80.6933 10.3599L78.1839 5.19811H79.4312ZM89.4393 6.0165L88.5223 6.50458C88.3777 6.20877 88.1986 6.06087 87.9849 6.06087C87.883 6.06087 87.7959 6.09538 87.7236 6.1644C87.6513 6.23014 87.6152 6.31559 87.6152 6.42077C87.6152 6.60482 87.8288 6.78723 88.2561 6.968C88.8444 7.22108 89.2405 7.45444 89.4442 7.66807C89.648 7.88171 89.7499 8.1693 89.7499 8.53084C89.7499 8.99426 89.579 9.3821 89.2372 9.69434C88.9052 9.99014 88.5042 10.138 88.0342 10.138C87.229 10.138 86.6587 9.74528 86.3235 8.95975L87.2701 8.52098C87.4015 8.75105 87.5018 8.89731 87.5708 8.95975C87.7056 9.08465 87.8666 9.1471 88.0539 9.1471C88.4286 9.1471 88.616 8.97619 88.616 8.63437C88.616 8.43717 88.4714 8.25311 88.1821 8.0822C88.0704 8.02633 87.9586 7.9721 87.8469 7.91951C87.7351 7.86692 87.6217 7.81269 87.5067 7.75682C87.1846 7.59905 86.9578 7.44129 86.8264 7.28353C86.6587 7.08304 86.5749 6.82503 86.5749 6.50951C86.5749 6.09209 86.7179 5.74699 87.0038 5.47419C87.2964 5.20139 87.6513 5.065 88.0687 5.065C88.6834 5.065 89.1402 5.38216 89.4393 6.0165Z" fill="#FBF598"/>
</svg>
