<svg width="109" height="12" viewBox="0 0 109 12" fill="none" xmlns="http://www.w3.org/2000/svg">
<path d="M24.0608 6.90884V10H22.9121V2.38796H24.2136C24.8512 2.38796 25.3327 2.43234 25.6581 2.52108C25.9868 2.60982 26.276 2.77744 26.5258 3.02394C26.9629 3.45122 27.1815 3.99024 27.1815 4.64101C27.1815 5.33779 26.9482 5.88996 26.4814 6.29751C26.0147 6.70507 25.3853 6.90884 24.5932 6.90884H24.0608ZM24.0608 5.84395H24.4897C25.5447 5.84395 26.0722 5.43804 26.0722 4.62622C26.0722 3.84069 25.5283 3.44793 24.4404 3.44793H24.0608V5.84395ZM27.6301 7.56454C27.6301 6.87105 27.8783 6.28108 28.3746 5.79465C28.8709 5.30821 29.4756 5.065 30.1889 5.065C30.9054 5.065 31.5134 5.30986 32.013 5.79958C32.506 6.2893 32.7525 6.89077 32.7525 7.60398C32.7525 8.32377 32.5043 8.92689 32.0081 9.41332C31.5085 9.89647 30.8955 10.138 30.1691 10.138C29.4493 10.138 28.8462 9.89154 28.3598 9.39853C27.8734 8.9121 27.6301 8.30077 27.6301 7.56454ZM28.7641 7.58426C28.7641 8.06412 28.8922 8.44374 29.1486 8.72311C29.4115 9.00577 29.7583 9.1471 30.1889 9.1471C30.6227 9.1471 30.9694 9.00741 31.2291 8.72804C31.4888 8.44867 31.6186 8.07563 31.6186 7.60891C31.6186 7.1422 31.4888 6.76916 31.2291 6.48979C30.9662 6.20713 30.6194 6.0658 30.1889 6.0658C29.7649 6.0658 29.4214 6.20713 29.1585 6.48979C28.8955 6.77244 28.7641 7.13727 28.7641 7.58426ZM36.7212 6.0165L35.8042 6.50458C35.6596 6.20877 35.4805 6.06087 35.2668 6.06087C35.1649 6.06087 35.0778 6.09538 35.0055 6.1644C34.9332 6.23014 34.8971 6.31559 34.8971 6.42077C34.8971 6.60482 35.1107 6.78723 35.538 6.968C36.1263 7.22108 36.5224 7.45444 36.7261 7.66807C36.9299 7.88171 37.0318 8.1693 37.0318 8.53084C37.0318 8.99426 36.8609 9.3821 36.5191 9.69434C36.1871 9.99014 35.7861 10.138 35.3161 10.138C34.5109 10.138 33.9406 9.74528 33.6054 8.95975L34.552 8.52098C34.6834 8.75105 34.7837 8.89731 34.8527 8.95975C34.9875 9.08465 35.1485 9.1471 35.3359 9.1471C35.7105 9.1471 35.8979 8.97619 35.8979 8.63437C35.8979 8.43717 35.7533 8.25311 35.464 8.0822C35.3523 8.02633 35.2405 7.9721 35.1288 7.91951C35.017 7.86692 34.9036 7.81269 34.7886 7.75682C34.4665 7.59905 34.2397 7.44129 34.1083 7.28353C33.9406 7.08304 33.8568 6.82503 33.8568 6.50951C33.8568 6.09209 33.9998 5.74699 34.2857 5.47419C34.5783 5.20139 34.9332 5.065 35.3506 5.065C35.9653 5.065 36.4221 5.38216 36.7212 6.0165ZM39.1764 6.23342V10H38.0671V6.23342H37.5938V5.19811H38.0671V3.43807H39.1764V5.19811H40.0391V6.23342H39.1764ZM40.7392 10L42.3415 1.81608L44.9544 7.73217L47.661 1.81608L49.1006 10H47.9223L47.1878 5.40517L44.9347 10.35L42.7458 5.40024L41.9274 10H40.7392ZM50.2789 7.56454C50.2789 6.87105 50.5271 6.28108 51.0234 5.79465C51.5196 5.30821 52.1244 5.065 52.8376 5.065C53.5541 5.065 54.1622 5.30986 54.6617 5.79958C55.1548 6.2893 55.4013 6.89077 55.4013 7.60398C55.4013 8.32377 55.1531 8.92689 54.6568 9.41332C54.1572 9.89647 53.5443 10.138 52.8179 10.138C52.0981 10.138 51.495 9.89154 51.0086 9.39853C50.5221 8.9121 50.2789 8.30077 50.2789 7.56454ZM51.4128 7.58426C51.4128 8.06412 51.541 8.44374 51.7974 8.72311C52.0603 9.00577 52.4071 9.1471 52.8376 9.1471C53.2715 9.1471 53.6182 9.00741 53.8779 8.72804C54.1375 8.44867 54.2673 8.07563 54.2673 7.60891C54.2673 7.1422 54.1375 6.76916 53.8779 6.48979C53.6149 6.20713 53.2682 6.0658 52.8376 6.0658C52.4136 6.0658 52.0702 6.20713 51.8072 6.48979C51.5443 6.77244 51.4128 7.13727 51.4128 7.58426ZM60.1193 1.6731H61.2335V10H60.1193V9.49713C59.6822 9.92441 59.1876 10.138 58.6354 10.138C57.978 10.138 57.4324 9.89811 56.9986 9.41825C56.568 8.92853 56.3528 8.3172 56.3528 7.58426C56.3528 6.86776 56.568 6.26958 56.9986 5.78972C57.4259 5.30657 57.9633 5.065 58.6107 5.065C59.1728 5.065 59.6756 5.29507 60.1193 5.75521V1.6731ZM57.4867 7.58426C57.4867 8.0444 57.6099 8.41909 57.8564 8.70832C58.1095 9.00084 58.4283 9.1471 58.8129 9.1471C59.2237 9.1471 59.5557 9.00577 59.8087 8.72311C60.0618 8.43059 60.1884 8.05919 60.1884 7.60891C60.1884 7.15863 60.0618 6.78723 59.8087 6.49472C59.5557 6.20877 59.227 6.0658 58.8227 6.0658C58.4415 6.0658 58.1227 6.21042 57.8663 6.49965C57.6132 6.79216 57.4867 7.1537 57.4867 7.58426ZM67.0067 7.86035H63.5655C63.595 8.25475 63.7232 8.56863 63.95 8.80199C64.1768 9.03206 64.4677 9.1471 64.8226 9.1471C65.0987 9.1471 65.3271 9.08136 65.5079 8.94989C65.6854 8.81843 65.8875 8.57521 66.1143 8.22024L67.051 8.74283C66.9064 8.98933 66.7536 9.20133 66.5925 9.37881C66.4315 9.55301 66.2589 9.69762 66.0749 9.81266C65.8908 9.92441 65.692 10.0066 65.4783 10.0592C65.2647 10.1117 65.033 10.138 64.7832 10.138C64.0667 10.138 63.4915 9.90797 63.0577 9.44783C62.6238 8.9844 62.4069 8.36979 62.4069 7.60398C62.4069 6.84475 62.6172 6.23014 63.0379 5.76014C63.4619 5.29671 64.024 5.065 64.724 5.065C65.4307 5.065 65.9894 5.29014 66.4003 5.74042C66.8078 6.18741 67.0116 6.80695 67.0116 7.59905L67.0067 7.86035ZM65.8678 6.95321C65.7133 6.3616 65.3403 6.0658 64.7487 6.0658C64.6139 6.0658 64.4874 6.08716 64.3691 6.12989C64.2507 6.16933 64.1423 6.22849 64.0437 6.30737C63.9484 6.38297 63.8662 6.475 63.7972 6.58346C63.7282 6.69192 63.6756 6.81517 63.6394 6.95321H65.8678ZM68.2244 5.19811H69.3336V5.62702C69.5374 5.41339 69.7182 5.26713 69.876 5.18825C70.037 5.10608 70.2276 5.065 70.4478 5.065C70.7404 5.065 71.046 5.16031 71.3648 5.35094L70.857 6.36653C70.6467 6.21535 70.4413 6.13975 70.2408 6.13975C69.636 6.13975 69.3336 6.59661 69.3336 7.51031V10H68.2244V5.19811ZM72.1586 5.19811H73.2728V5.64181C73.6606 5.25727 74.0977 5.065 74.5842 5.065C75.1429 5.065 75.5784 5.24083 75.8906 5.59251C76.1602 5.8916 76.2949 6.37968 76.2949 7.05675V10H75.1807V7.31804C75.1807 6.84475 75.115 6.51772 74.9835 6.33695C74.8553 6.1529 74.622 6.06087 74.2834 6.06087C73.9153 6.06087 73.654 6.18248 73.4996 6.4257C73.3484 6.66563 73.2728 7.08468 73.2728 7.68286V10H72.1586V5.19811ZM78.8093 5.19811V10H77.7V5.19811H78.8093ZM77.5324 3.20143C77.5324 3.00751 77.603 2.83989 77.7444 2.69856C77.8857 2.55723 78.055 2.48657 78.2522 2.48657C78.4526 2.48657 78.6236 2.55723 78.7649 2.69856C78.9062 2.8366 78.9769 3.00587 78.9769 3.20636C78.9769 3.40685 78.9062 3.57776 78.7649 3.71908C78.6268 3.86041 78.4576 3.93108 78.2571 3.93108C78.0566 3.93108 77.8857 3.86041 77.7444 3.71908C77.603 3.57776 77.5324 3.4052 77.5324 3.20143ZM83.0047 6.0165L82.0878 6.50458C81.9431 6.20877 81.764 6.06087 81.5504 6.06087C81.4485 6.06087 81.3614 6.09538 81.2891 6.1644C81.2168 6.23014 81.1806 6.31559 81.1806 6.42077C81.1806 6.60482 81.3943 6.78723 81.8215 6.968C82.4098 7.22108 82.8059 7.45444 83.0097 7.66807C83.2135 7.88171 83.3153 8.1693 83.3153 8.53084C83.3153 8.99426 83.1444 9.3821 82.8026 9.69434C82.4707 9.99014 82.0697 10.138 81.5997 10.138C80.7944 10.138 80.2242 9.74528 79.8889 8.95975L80.8355 8.52098C80.967 8.75105 81.0672 8.89731 81.1362 8.95975C81.271 9.08465 81.4321 9.1471 81.6194 9.1471C81.9941 9.1471 82.1814 8.97619 82.1814 8.63437C82.1814 8.43717 82.0368 8.25311 81.7476 8.0822C81.6358 8.02633 81.5241 7.9721 81.4123 7.91951C81.3006 7.86692 81.1872 7.81269 81.0722 7.75682C80.7501 7.59905 80.5233 7.44129 80.3918 7.28353C80.2242 7.08304 80.1404 6.82503 80.1404 6.50951C80.1404 6.09209 80.2833 5.74699 80.5693 5.47419C80.8618 5.20139 81.2168 5.065 81.6342 5.065C82.2488 5.065 82.7057 5.38216 83.0047 6.0165ZM87.1066 6.0165L86.1896 6.50458C86.045 6.20877 85.8658 6.06087 85.6522 6.06087C85.5503 6.06087 85.4632 6.09538 85.3909 6.1644C85.3186 6.23014 85.2824 6.31559 85.2824 6.42077C85.2824 6.60482 85.4961 6.78723 85.9233 6.968C86.5117 7.22108 86.9077 7.45444 87.1115 7.66807C87.3153 7.88171 87.4172 8.1693 87.4172 8.53084C87.4172 8.99426 87.2463 9.3821 86.9044 9.69434C86.5725 9.99014 86.1715 10.138 85.7015 10.138C84.8962 10.138 84.326 9.74528 83.9908 8.95975L84.9373 8.52098C85.0688 8.75105 85.169 8.89731 85.2381 8.95975C85.3728 9.08465 85.5339 9.1471 85.7212 9.1471C86.0959 9.1471 86.2832 8.97619 86.2832 8.63437C86.2832 8.43717 86.1386 8.25311 85.8494 8.0822C85.7376 8.02633 85.6259 7.9721 85.5142 7.91951C85.4024 7.86692 85.289 7.81269 85.174 7.75682C84.8519 7.59905 84.6251 7.44129 84.4936 7.28353C84.326 7.08304 84.2422 6.82503 84.2422 6.50951C84.2422 6.09209 84.3852 5.74699 84.6711 5.47419C84.9636 5.20139 85.3186 5.065 85.736 5.065C86.3506 5.065 86.8075 5.38216 87.1066 6.0165ZM89.5272 5.19811V10H88.418V5.19811H89.5272ZM88.2503 3.20143C88.2503 3.00751 88.321 2.83989 88.4623 2.69856C88.6037 2.55723 88.7729 2.48657 88.9701 2.48657C89.1706 2.48657 89.3415 2.55723 89.4829 2.69856C89.6242 2.8366 89.6949 3.00587 89.6949 3.20636C89.6949 3.40685 89.6242 3.57776 89.4829 3.71908C89.3448 3.86041 89.1756 3.93108 88.9751 3.93108C88.7746 3.93108 88.6037 3.86041 88.4623 3.71908C88.321 3.57776 88.2503 3.4052 88.2503 3.20143ZM90.9323 5.19811H92.0416V5.64181C92.2552 5.41832 92.4376 5.26713 92.5888 5.18825C92.7499 5.10608 92.952 5.065 93.1952 5.065C93.7375 5.065 94.1664 5.30164 94.482 5.77493C94.8304 5.30164 95.302 5.065 95.8969 5.065C96.9782 5.065 97.5189 5.7207 97.5189 7.03209V10H96.4047V7.33283C96.4047 6.87269 96.3488 6.5473 96.2371 6.35667C96.122 6.16276 95.933 6.0658 95.6701 6.0658C95.3644 6.0658 95.1409 6.18084 94.9996 6.41091C94.8616 6.64098 94.7926 7.01073 94.7926 7.52017V10H93.6784V7.34762C93.6784 6.49307 93.4319 6.0658 92.9388 6.0658C92.6266 6.0658 92.3982 6.18248 92.2536 6.41584C92.1122 6.64919 92.0416 7.0173 92.0416 7.52017V10H90.9323V5.19811ZM98.6922 7.56454C98.6922 6.87105 98.9404 6.28108 99.4367 5.79465C99.933 5.30821 100.538 5.065 101.251 5.065C101.967 5.065 102.575 5.30986 103.075 5.79958C103.568 6.2893 103.815 6.89077 103.815 7.60398C103.815 8.32377 103.566 8.92689 103.07 9.41332C102.571 9.89647 101.958 10.138 101.231 10.138C100.511 10.138 99.9083 9.89154 99.4219 9.39853C98.9355 8.9121 98.6922 8.30077 98.6922 7.56454ZM99.8262 7.58426C99.8262 8.06412 99.9543 8.44374 100.211 8.72311C100.474 9.00577 100.82 9.1471 101.251 9.1471C101.685 9.1471 102.032 9.00741 102.291 8.72804C102.551 8.44867 102.681 8.07563 102.681 7.60891C102.681 7.1422 102.551 6.76916 102.291 6.48979C102.028 6.20713 101.682 6.0658 101.251 6.0658C100.827 6.0658 100.484 6.20713 100.221 6.48979C99.9576 6.77244 99.8262 7.13727 99.8262 7.58426Z" fill="#FBF598"/>
<path d="M12.9631 2.00243L11.0013 11.3363C10.8539 11.9949 10.4668 12.1581 9.9178 11.8492L6.92736 9.62866L5.4856 11.0274C5.32669 11.1877 5.19378 11.3218 4.88462 11.3218L5.09843 8.25029L10.6401 3.20013C10.8799 2.98449 10.5881 2.86209 10.2645 3.08065L3.41685 7.42851L0.469759 6.49891C-0.171667 6.29783 -0.183225 5.85197 0.602667 5.54308L12.1368 1.05826C12.6713 0.857184 13.1365 1.17774 12.9631 2.00243Z" fill="#FBF598"/>
</svg>
