<svg width="109" height="13" viewBox="0 0 109 13" fill="none" xmlns="http://www.w3.org/2000/svg">
<path d="M12.8965 3.1093C12.8209 2.83457 12.6734 2.58411 12.4686 2.38288C12.2638 2.18165 12.009 2.03668 11.7294 1.96242C10.7061 1.68817 6.58742 1.68817 6.58742 1.68817C6.58742 1.68817 2.46876 1.69648 1.44544 1.97073C1.16587 2.04499 0.910993 2.18996 0.706215 2.39119C0.501436 2.59242 0.353911 2.84288 0.278349 3.11761C-0.0311844 4.9044 -0.152968 7.62698 0.286806 9.3423C0.362369 9.61703 0.509893 9.86749 0.714672 10.0687C0.919451 10.27 1.17433 10.4149 1.4539 10.4892C2.47722 10.7634 6.59588 10.7634 6.59588 10.7634C6.59588 10.7634 10.7145 10.7634 11.7379 10.4892C12.0174 10.4149 12.2723 10.27 12.4771 10.0687C12.6819 9.86749 12.8294 9.61703 12.9049 9.3423C13.2314 7.55551 13.332 4.8321 12.8965 3.1093ZM5.27655 8.1705V4.2811L8.69326 6.2258L5.27655 8.1705Z" fill="#FBF598"/>
<path d="M28.5471 4.20223L28.2365 6.79052C28.2234 6.88584 28.2135 6.97786 28.207 7.06661C28.2037 7.15206 28.202 7.23258 28.202 7.30818C28.202 7.55468 28.3039 7.67793 28.5077 7.67793C28.7936 7.67793 29.0533 7.4758 29.2867 7.07154C29.5167 6.67384 29.6318 6.22028 29.6318 5.71083C29.6318 4.9023 29.3491 4.24003 28.7838 3.72401C28.2218 3.20143 27.5036 2.94013 26.6293 2.94013C25.7156 2.94013 24.9465 3.25237 24.3221 3.87685C23.7009 4.49804 23.3903 5.26713 23.3903 6.18412C23.3903 6.69028 23.502 7.18657 23.7255 7.673C23.9523 8.12986 24.2695 8.50619 24.677 8.80199C25.2226 9.1964 25.9063 9.3936 26.7279 9.3936C27.497 9.3936 28.3023 9.19804 29.1437 8.80692L29.2176 8.76748L29.474 9.47741L29.4148 9.50699C28.557 9.92112 27.663 10.1282 26.7329 10.1282C25.7041 10.1282 24.843 9.88003 24.1495 9.38374C23.6401 9.0222 23.2424 8.56042 22.9564 7.99839C22.6738 7.40678 22.5324 6.80531 22.5324 6.19398C22.5324 5.07979 22.9252 4.14471 23.7107 3.38877C24.4963 2.63282 25.4658 2.25485 26.6195 2.25485C27.6811 2.25485 28.5701 2.58024 29.2867 3.23101C29.9999 3.8752 30.3565 4.68209 30.3565 5.65167C30.3565 6.40105 30.1626 7.0436 29.7747 7.57933C29.3836 8.12164 28.9251 8.3928 28.3992 8.3928C27.9785 8.3928 27.6926 8.19395 27.5414 7.79626C27.1371 8.21038 26.6869 8.41745 26.1906 8.41745C25.6483 8.41745 25.1963 8.22189 24.8348 7.83077C24.4798 7.44293 24.3023 6.94828 24.3023 6.34681C24.3023 5.69933 24.5012 5.16688 24.8989 4.74947C25.2966 4.3222 25.7962 4.10856 26.3976 4.10856C26.9498 4.10856 27.3951 4.3222 27.7337 4.74947L27.8027 4.20223H28.5471ZM27.5414 6.10524C27.5414 5.79958 27.4379 5.54486 27.2308 5.34108C27.0172 5.1373 26.7575 5.03541 26.4519 5.03541C26.1199 5.03541 25.8487 5.1636 25.6384 5.41996C25.4248 5.67304 25.3179 5.99678 25.3179 6.39119C25.3179 6.733 25.4034 7.01402 25.5743 7.23423C25.7452 7.45444 25.9654 7.56454 26.2349 7.56454C26.58 7.56454 26.8841 7.41828 27.147 7.12577C27.4099 6.83325 27.5414 6.49307 27.5414 6.10524ZM32.7032 12.6129H31.5939V5.19811H32.7032V5.7207C33.1403 5.28356 33.6366 5.065 34.1921 5.065C34.8527 5.065 35.3967 5.30821 35.8239 5.79465C36.2578 6.27779 36.4747 6.88748 36.4747 7.6237C36.4747 8.34349 36.2594 8.94332 35.8289 9.42318C35.4016 9.89976 34.8626 10.138 34.2118 10.138C33.6498 10.138 33.1469 9.9129 32.7032 9.46262V12.6129ZM35.3408 7.62863C35.3408 7.16849 35.2159 6.79381 34.9661 6.50458C34.713 6.21206 34.3942 6.0658 34.0097 6.0658C33.6021 6.0658 33.2718 6.20713 33.0187 6.48979C32.7656 6.77244 32.6391 7.14384 32.6391 7.60398C32.6391 8.05426 32.7656 8.42566 33.0187 8.71818C33.2685 9.00412 33.5972 9.1471 34.0047 9.1471C34.3893 9.1471 34.7064 9.00248 34.9562 8.71325C35.2126 8.42402 35.3408 8.06248 35.3408 7.62863ZM37.4213 7.56454C37.4213 6.87105 37.6694 6.28108 38.1657 5.79465C38.662 5.30821 39.2668 5.065 39.98 5.065C40.6965 5.065 41.3045 5.30986 41.8041 5.79958C42.2971 6.2893 42.5436 6.89077 42.5436 7.60398C42.5436 8.32377 42.2955 8.92689 41.7992 9.41332C41.2996 9.89647 40.6866 10.138 39.9603 10.138C39.2405 10.138 38.6374 9.89154 38.1509 9.39853C37.6645 8.9121 37.4213 8.30077 37.4213 7.56454ZM38.5552 7.58426C38.5552 8.06412 38.6834 8.44374 38.9397 8.72311C39.2027 9.00577 39.5494 9.1471 39.98 9.1471C40.4138 9.1471 40.7606 9.00741 41.0202 8.72804C41.2799 8.44867 41.4097 8.07563 41.4097 7.60891C41.4097 7.1422 41.2799 6.76916 41.0202 6.48979C40.7573 6.20713 40.4105 6.0658 39.98 6.0658C39.556 6.0658 39.2125 6.20713 38.9496 6.48979C38.6867 6.77244 38.5552 7.13727 38.5552 7.58426ZM46.5123 6.0165L45.5953 6.50458C45.4507 6.20877 45.2716 6.06087 45.058 6.06087C44.9561 6.06087 44.869 6.09538 44.7967 6.1644C44.7244 6.23014 44.6882 6.31559 44.6882 6.42077C44.6882 6.60482 44.9018 6.78723 45.3291 6.968C45.9174 7.22108 46.3135 7.45444 46.5173 7.66807C46.721 7.88171 46.8229 8.1693 46.8229 8.53084C46.8229 8.99426 46.652 9.3821 46.3102 9.69434C45.9782 9.99014 45.5773 10.138 45.1073 10.138C44.302 10.138 43.7318 9.74528 43.3965 8.95975L44.3431 8.52098C44.4746 8.75105 44.5748 8.89731 44.6438 8.95975C44.7786 9.08465 44.9396 9.1471 45.127 9.1471C45.5017 9.1471 45.689 8.97619 45.689 8.63437C45.689 8.43717 45.5444 8.25311 45.2552 8.0822C45.1434 8.02633 45.0317 7.9721 44.9199 7.91951C44.8082 7.86692 44.6948 7.81269 44.5797 7.75682C44.2576 7.59905 44.0309 7.44129 43.8994 7.28353C43.7318 7.08304 43.648 6.82503 43.648 6.50951C43.648 6.09209 43.7909 5.74699 44.0769 5.47419C44.3694 5.20139 44.7244 5.065 45.1418 5.065C45.7564 5.065 46.2132 5.38216 46.5123 6.0165ZM48.9675 6.23342V10H47.8582V6.23342H47.385V5.19811H47.8582V3.43807H48.9675V5.19811H49.8303V6.23342H48.9675ZM50.5846 5.19811H51.6938V5.64181C51.9075 5.41832 52.0899 5.26713 52.2411 5.18825C52.4021 5.10608 52.6043 5.065 52.8475 5.065C53.3898 5.065 53.8187 5.30164 54.1342 5.77493C54.4826 5.30164 54.9543 5.065 55.5492 5.065C56.6305 5.065 57.1712 5.7207 57.1712 7.03209V10H56.057V7.33283C56.057 6.87269 56.0011 6.5473 55.8893 6.35667C55.7743 6.16276 55.5853 6.0658 55.3224 6.0658C55.0167 6.0658 54.7932 6.18084 54.6519 6.41091C54.5138 6.64098 54.4448 7.01073 54.4448 7.52017V10H53.3306V7.34762C53.3306 6.49307 53.0841 6.0658 52.5911 6.0658C52.2789 6.0658 52.0504 6.18248 51.9058 6.41584C51.7645 6.64919 51.6938 7.0173 51.6938 7.52017V10H50.5846V5.19811ZM58.3445 7.56454C58.3445 6.87105 58.5927 6.28108 59.089 5.79465C59.5852 5.30821 60.19 5.065 60.9032 5.065C61.6197 5.065 62.2278 5.30986 62.7273 5.79958C63.2204 6.2893 63.4669 6.89077 63.4669 7.60398C63.4669 8.32377 63.2187 8.92689 62.7224 9.41332C62.2228 9.89647 61.6099 10.138 60.8835 10.138C60.1637 10.138 59.5606 9.89154 59.0742 9.39853C58.5877 8.9121 58.3445 8.30077 58.3445 7.56454ZM59.4784 7.58426C59.4784 8.06412 59.6066 8.44374 59.863 8.72311C60.1259 9.00577 60.4727 9.1471 60.9032 9.1471C61.3371 9.1471 61.6838 9.00741 61.9435 8.72804C62.2031 8.44867 62.3329 8.07563 62.3329 7.60891C62.3329 7.1422 62.2031 6.76916 61.9435 6.48979C61.6805 6.20713 61.3338 6.0658 60.9032 6.0658C60.4792 6.0658 60.1358 6.20713 59.8728 6.48979C59.6099 6.77244 59.4784 7.13727 59.4784 7.58426ZM68.1849 1.6731H69.2991V10H68.1849V9.49713C67.7478 9.92441 67.2532 10.138 66.701 10.138C66.0436 10.138 65.498 9.89811 65.0642 9.41825C64.6336 8.92853 64.4184 8.3172 64.4184 7.58426C64.4184 6.86776 64.6336 6.26958 65.0642 5.78972C65.4915 5.30657 66.0289 5.065 66.6763 5.065C67.2384 5.065 67.7412 5.29507 68.1849 5.75521V1.6731ZM65.5523 7.58426C65.5523 8.0444 65.6755 8.41909 65.922 8.70832C66.1751 9.00084 66.4939 9.1471 66.8785 9.1471C67.2893 9.1471 67.6213 9.00577 67.8743 8.72311C68.1274 8.43059 68.254 8.05919 68.254 7.60891C68.254 7.15863 68.1274 6.78723 67.8743 6.49472C67.6213 6.20877 67.2926 6.0658 66.8883 6.0658C66.5071 6.0658 66.1883 6.21042 65.9319 6.49965C65.6788 6.79216 65.5523 7.1537 65.5523 7.58426ZM71.8085 12.6129H70.6993V5.19811H71.8085V5.7207C72.2457 5.28356 72.742 5.065 73.2974 5.065C73.9581 5.065 74.502 5.30821 74.9293 5.79465C75.3631 6.27779 75.5801 6.88748 75.5801 7.6237C75.5801 8.34349 75.3648 8.94332 74.9342 9.42318C74.5069 9.89976 73.9679 10.138 73.3171 10.138C72.7551 10.138 72.2523 9.9129 71.8085 9.46262V12.6129ZM74.4461 7.62863C74.4461 7.16849 74.3212 6.79381 74.0714 6.50458C73.8184 6.21206 73.4996 6.0658 73.115 6.0658C72.7075 6.0658 72.3771 6.20713 72.1241 6.48979C71.871 6.77244 71.7445 7.14384 71.7445 7.60398C71.7445 8.05426 71.871 8.42566 72.1241 8.71818C72.3739 9.00412 72.7025 9.1471 73.1101 9.1471C73.4946 9.1471 73.8118 9.00248 74.0616 8.71325C74.318 8.42402 74.4461 8.06248 74.4461 7.62863ZM81.3975 9.88661C81.3975 10.1134 81.3893 10.3122 81.3729 10.4831C81.3597 10.6573 81.34 10.8102 81.3137 10.9416C81.2348 11.3032 81.0804 11.6138 80.8503 11.8734C80.4165 12.373 79.8199 12.6228 79.0607 12.6228C78.4198 12.6228 77.8923 12.4502 77.4781 12.1051C77.0509 11.7502 76.8044 11.2588 76.7386 10.631H77.8528C77.8955 10.8677 77.9662 11.0501 78.0648 11.1783C78.2949 11.4774 78.6301 11.6269 79.0705 11.6269C79.8824 11.6269 80.2883 11.129 80.2883 10.1331V9.46262C79.8479 9.9129 79.3401 10.138 78.7649 10.138C78.1108 10.138 77.5751 9.9014 77.1577 9.42811C76.737 8.94825 76.5266 8.34842 76.5266 7.62863C76.5266 6.92856 76.7222 6.33367 77.1133 5.84395C77.534 5.32465 78.0895 5.065 78.7797 5.065C79.3844 5.065 79.8873 5.29014 80.2883 5.74042V5.19811H81.3975V9.88661ZM80.3326 7.60891C80.3326 7.1422 80.2078 6.76916 79.958 6.48979C79.7049 6.20384 79.3811 6.06087 78.9867 6.06087C78.566 6.06087 78.2341 6.21699 77.9909 6.52923C77.7707 6.8086 77.6605 7.17014 77.6605 7.61384C77.6605 8.05098 77.7707 8.40923 77.9909 8.6886C78.2308 8.99426 78.5627 9.1471 78.9867 9.1471C79.4107 9.1471 79.746 8.99262 79.9925 8.68367C80.2193 8.4043 80.3326 8.04605 80.3326 7.60891Z" fill="#FBF598"/>
</svg>
