<svg width="100" height="31" viewBox="0 0 100 31" fill="none" xmlns="http://www.w3.org/2000/svg">
<path d="M67.2125 2.63119L52.8228 30.5H90.8919L76.32 2.08475L71.7663 11.3744L67.2125 2.63119Z" fill="#C10130" fill-opacity="0.8"/>
<path d="M99.9998 30.5L85.4278 2.81335L71.2202 30.5H99.9998Z" fill="#C10130" fill-opacity="0.8"/>
<path d="M93.6246 10.8279L89.253 2.26691H97.9961L93.6246 10.8279Z" fill="#C10130" fill-opacity="0.8"/>
<circle cx="20.4009" cy="4.81698" r="4.73588" fill="black" fill-opacity="0.83"/>
<path fill-rule="evenodd" clip-rule="evenodd" d="M14.3894 30.5V1.90262C4.73588 1.90262 0.000120214 8.82429 2.28718e-09 16.1103C-0.000120177 23.3962 4.73588 30.5 14.3894 30.5ZM15.3005 11.3744V30.5H25.683V22.6676L33.5154 30.5H64.8451V19.7532H61.9307V12.4673H57.0127L61.9307 9.37073V2.44907H44.0801V21.7569L25.683 2.44907V11.3744H15.3005ZM25.8651 21.2104C27.4747 21.2104 28.7795 19.9056 28.7795 18.296C28.7795 16.6864 27.4747 15.3816 25.8651 15.3816C24.2556 15.3816 22.9507 16.6864 22.9507 18.296C22.9507 19.9056 24.2556 21.2104 25.8651 21.2104Z" fill="black" fill-opacity="0.83"/>
</svg>
