<svg width="90" height="97" viewBox="0 0 90 97" fill="none" xmlns="http://www.w3.org/2000/svg">
<path d="M61.3642 82.2251C52.833 90.975 56.1142 87.6938 47.3642 96.225C39.6323 96.225 33.3643 89.957 33.3643 82.2251C33.3643 74.4931 39.6323 68.2251 47.3642 68.2251C55.0962 68.2251 61.3642 74.4931 61.3642 82.2251Z" fill="#084AAE" fill-opacity="0.8"/>
<path d="M47.5835 96.2251V82.4438H61.3647L47.5835 96.2251Z" fill="#084AAE" fill-opacity="0.8"/>
<path d="M0 27.8928V0.283381H19.0135V15.9503L14.2095 18.6896H19.0135V27.8928H0Z" fill="#084AAE" fill-opacity="0.8"/>
<path d="M20.9837 28.0007V0H28.8643C30.7985 0 32.6158 0.364347 34.3161 1.09304C36.0163 1.82173 37.5007 2.82031 38.7692 4.08878C40.0466 5.34825 41.0542 6.83262 41.7919 8.5419C42.5296 10.2422 42.8984 12.0594 42.8984 13.9936C42.8984 15.9278 42.5296 17.745 41.7919 19.4453C41.0542 21.1366 40.0466 22.6165 38.7692 23.8849C37.5007 25.1534 36.0163 26.1565 34.3161 26.8942C32.6158 27.6319 30.7985 28.0007 28.8643 28.0007H20.9837Z" fill="#084AAE" fill-opacity="0.8"/>
<path d="M44.8416 14.4254V0.026989H72.0597V14.4254C72.0597 16.3056 71.7043 18.0779 70.9936 19.7422C70.2829 21.3975 69.3158 22.8369 68.0923 24.0604C66.8688 25.2839 65.425 26.251 63.7607 26.9617C62.1054 27.6724 60.3286 28.0277 58.4304 28.0277C56.5502 28.0277 54.7869 27.6724 53.1406 26.9617C51.4943 26.251 50.0549 25.2839 48.8224 24.0604C47.599 22.8369 46.6274 21.3975 45.9077 19.7422C45.197 18.0779 44.8416 16.3056 44.8416 14.4254Z" fill="#084AAE" fill-opacity="0.8"/>
<path d="M0.229403 47.6832C0.229403 45.767 0.598248 43.9678 1.33594 42.2855C2.07363 40.5942 3.07221 39.1188 4.33168 37.8594C5.59115 36.5999 7.06652 35.6058 8.75781 34.8771C10.4581 34.1484 12.2663 33.7841 14.1825 33.7841C16.0987 33.7841 17.898 34.1484 19.5803 34.8771C21.2715 35.6058 22.7469 36.5999 24.0064 37.8594C25.2659 39.1188 26.2599 40.5942 26.9886 42.2855C27.7173 43.9678 28.0817 45.767 28.0817 47.6832V47.7912H14.1825V61.6364C12.2663 61.6364 10.4581 61.2675 8.75781 60.5298C7.06652 59.8011 5.59115 58.8026 4.33168 57.5341C3.07221 56.2746 2.07363 54.7992 1.33594 53.108C0.598248 51.4077 0.229403 49.5994 0.229403 47.6832Z" fill="#084AAE" fill-opacity="0.8"/>
<path d="M23.3232 62.1357L37.8026 34L52.282 62.1357H23.3232Z" fill="#084AAE" fill-opacity="0.8"/>
<path d="M0.0269886 74.4773V68.027H6.80114H16.0312H22.8054V74.4773H16.0312V96.1087H6.80114V74.4773H0.0269886Z" fill="#084AAE" fill-opacity="0.8"/>
<path d="M23.0064 95.8118V68.1484V68.0945H30.8196V68.1484V95.8118H23.0064Z" fill="#084AAE" fill-opacity="0.8"/>
<path d="M63.4098 95.8658V67.919L81.5597 87.1349V67.919H89.6562V95.8658H63.4098Z" fill="#084AAE" fill-opacity="0.8"/>
</svg>
