<svg xmlns="http://www.w3.org/2000/svg" viewBox="0 0 388.74 124.38" fill="#FBF598"><g id="Livello_2" data-name="Livello 2"><g id="Livello_1-2" data-name="Livello 1"><path d="M214.43,46.08l-2.38-.45c-3.53-.69-7.06-1.32-10.57-2.1a3.78,3.78,0,0,0-3.76,1.08q-5.94,5.8-11.9,11.57c-.4.39-.77.8-1.2,1.15-.61.51-.9.39-1.09-.45a10.28,10.28,0,0,1-.3-1.83c-.18-3.45-.33-6.9-.5-10.34-.1-1.93-.24-3.86-.32-5.79a3.48,3.48,0,0,0-2-3.14c-3.84-2-7.68-4.11-11.52-6.17-1.64-.88-3.29-1.75-4.92-2.67-.68-.38-.69-.83-.07-1.24a8.25,8.25,0,0,1,1.3-.64c5.34-2.1,10.66-4.23,16-6.25a4.4,4.4,0,0,0,3.1-3.49c1-4.45,2-8.87,3.09-13.29.17-.7.42-1.65.93-1.92.83-.44,1.24.56,1.72,1.11q4.42,5.1,8.86,10.17c.32.36.67.7,1,1.06a4.1,4.1,0,0,0,3.33,1.37c3.87-.07,7.75,0,11.63-.05a7.22,7.22,0,0,1,1,0,.94.94,0,0,1,.83,1.34,18.89,18.89,0,0,1-.86,1.89c-1.61,3.29-3.18,6.59-4.84,9.85a5.15,5.15,0,0,0-.25,4.37c1.48,4.16,2.93,8.33,4.4,12.5a7,7,0,0,1,.34,1C215.71,45.66,215.27,46.13,214.43,46.08Z"/><path d="M194.4,103.88H3.46c-.76,0-1.52,0-2.28,0a1.06,1.06,0,0,1,0-2.12H383.07c1.17,0,2.35,0,3.53,0a2.71,2.71,0,0,1,1.22.08c.37.2.82.66.82,1a1.33,1.33,0,0,1-.82,1,8.29,8.29,0,0,1-2.06.09H194.4Z"/><path d="M104.51,91.42c-7.65.25-14.07-5.7-13.94-14.23s6.1-14.09,14.21-14c8.46.05,14,6.22,13.92,14.3S112.83,91.62,104.51,91.42Zm8-14.61a22.39,22.39,0,0,0-.85-3.42,7.66,7.66,0,0,0-13.51-1.2,10,10,0,0,0-.85,8.34,7.66,7.66,0,0,0,10.85,4.55C111.3,83.49,112.4,80.72,112.54,76.81Z"/><path d="M61.46,77.48c0-3,0-6.09,0-9.14a9.31,9.31,0,0,1,.23-2c.44-1.8,1.35-2.64,3.19-2.65,3.94,0,7.9-.33,11.81.39s6.87,3.29,6.83,7.8c0,2.47-.41,4.72-2.41,6.34a12.2,12.2,0,0,1-2.67,1.54c-1.51.67-1.6.83-.53,2.14,1.48,1.82,3,3.61,4.5,5.43.5.61,1.37,1.16.92,2.12A2.85,2.85,0,0,1,81,91a4.31,4.31,0,0,1-4.44-1.56c-1.43-1.87-2.92-3.69-4.39-5.52A12.71,12.71,0,0,0,70.55,82a3.48,3.48,0,0,0-1.66-.62c-.76-.12-1.16.34-1.18,1.09,0,1.25,0,2.49,0,3.74,0,.9,0,1.8,0,2.69a2.07,2.07,0,0,1-2,2.07c-2.82.48-4.12-.55-4.24-3.53-.09-2.14,0-4.29,0-6.44V77.48Zm6.2-4.89h0c0,1,0,2.08,0,3.11,0,.56.24,1,.8,1,2.13,0,4.3.32,6.37-.42a3.61,3.61,0,0,0,2.47-3.89,3.46,3.46,0,0,0-2.7-3.49c-2-.62-4-.34-6-.35-.68,0-1,.49-1,1.12C67.65,70.66,67.66,71.63,67.66,72.59Z"/><path d="M0,77.06C0,74,0,70.84,0,67.73c0-2.83,1.22-4.08,4-4.1,4.63,0,9.27,0,13.9,0a6.41,6.41,0,0,1,1.24.08,2.61,2.61,0,0,1,2.28,2.94c-.11,1.56-1,2.37-2.77,2.38-3.32,0-6.64,0-10,0a5.29,5.29,0,0,0-1.44,0c-.32.1-.56.48-.8.76-.07.09,0,.27,0,.41-.36,4.2-.36,4.19,3.83,4.19,1.8,0,3.6,0,5.39,0a2.36,2.36,0,0,1,2.48,2.69,2.12,2.12,0,0,1-1.89,2.33,8.64,8.64,0,0,1-1.84.19c-2.21,0-4.43,0-6.64,0-1.2,0-1.29.11-1.33,1.3s0,2.21,0,3.31.12,1.24,1.37,1.25c3.25,0,6.5,0,9.75,0H18.8c2.1.06,2.74.65,2.75,2.5s-.82,2.83-2.75,2.84c-5.19,0-10.38,0-15.56,0-1.85,0-2.61-.69-3-2.49a10,10,0,0,1-.23-2C0,83.28,0,80.17,0,77.06Z"/><path d="M29.35,73.81c0-2.42,0-4.84,0-7.26,0-2.12.84-2.95,2.83-3,2.32,0,3.37.76,3.4,2.9.06,4.15,0,8.3,0,12.45,0,.69,0,1.38,0,2.07a5.2,5.2,0,0,0,5.5,5,5.06,5.06,0,0,0,5.28-5c.11-2,.09-4,.1-6,0-2.84,0-5.67,0-8.51,0-1.07.18-2.1,1.32-2.59a4.23,4.23,0,0,1,4,.16,2.54,2.54,0,0,1,.82,1.37,4.59,4.59,0,0,1,.08,1.44c0,4.43,0,8.85,0,13.28A14,14,0,0,1,51.83,85a8.77,8.77,0,0,1-5.71,5.6,15.38,15.38,0,0,1-10,.11c-4.24-1.4-6.3-4.1-6.71-9.22-.21-2.54,0-5.12,0-7.67Z"/><path d="M175.67,91.35c-1.4-.37-2.7-.78-3.29-2.25-.49-1.21-1.09-2.39-1.47-3.64a1.89,1.89,0,0,0-2.13-1.5q-3.53,0-7.05,0a1.46,1.46,0,0,0-1.59,1c-.34,1-.7,2-1.13,2.89A10,10,0,0,1,157.79,90c-1.59,2-4.1,1.15-5.28,0a1.28,1.28,0,0,1-.24-1.08c.27-.93.66-1.82,1-2.71,2.66-6.81,5.36-13.6,7.94-20.43a3.06,3.06,0,0,1,3.28-2.23c.56,0,1.11,0,1.66,0a3.53,3.53,0,0,1,3.71,2.63c2.86,7.39,5.83,14.74,8.76,22.1.48,1.21.39,1.64-.66,2.2A18.28,18.28,0,0,1,175.67,91.35Zm-10.38-12h0c.76,0,1.52,0,2.28,0,1,0,1.31-.38,1-1.28-.86-2.4-1.79-4.78-2.7-7.17a2.1,2.1,0,0,0-.34-.5c-.2.16-.51.28-.59.49q-1.06,2.58-2,5.21c-1.21,3.26-1.2,3.27,2.19,3.26Z"/><path d="M126.67,77.59V68.68c0-.42,0-.83,0-1.25.12-2.69,1.16-3.79,3.85-3.78a68.74,68.74,0,0,1,9.51.29c7,1,8.81,5.44,8.14,10.69-.59,4.67-3.52,6.52-7.63,7.17a49.65,49.65,0,0,1-6,.34c-1.6.06-1.61,0-1.63,1.63s0,3,0,4.56c0,1.92-.73,2.6-2.62,2.68-.35,0-.7,0-1,0a2.27,2.27,0,0,1-2.46-2,9.44,9.44,0,0,1-.12-1.85c0-1.59,0-3.18,0-4.77Zm9.24-.3c.77,0,1.53.06,2.29,0a4,4,0,0,0,3.89-3.6c.23-2.8-.61-4.23-3.13-4.8a21.46,21.46,0,0,0-4.32-.31c-1.54,0-1.69.15-1.72,1.63s0,2.77,0,4.15C133,77.7,132.46,77.27,135.91,77.29Z"/><path d="M330.32,77.56v11c0,.48,0,1-.05,1.45-.08.78-.63,1-1.32,1-.91,0-1.36-.29-1.46-1.1a11.7,11.7,0,0,1,0-1.45q0-9,0-18a14,14,0,0,0,0-1.45c0-.21-.23-.4-.35-.6-.14.14-.33.25-.41.42-.9,1.94-1.77,3.9-2.66,5.84-1.21,2.64-2.39,5.28-3.67,7.89-.8,1.64-2.09,2.14-3.56,1.38a3.31,3.31,0,0,1-1.32-1.47c-1.87-4-3.65-8-5.52-12-.35-.75-.39-1.75-1.39-2.08a22.27,22.27,0,0,0-.24,2.42c0,6,0,11.89,0,17.84,0,.42,0,.83,0,1.24a1.13,1.13,0,0,1-1.16,1.2c-.87.09-1.35-.18-1.56-1a4.59,4.59,0,0,1-.12-1.23q0-11.1,0-22.19c0-.21,0-.42,0-.62.13-1.39.77-2.22,1.87-2.41a2.68,2.68,0,0,1,3.29,1.52c.78,1.61,1.48,3.27,2.22,4.91q2.12,4.71,4.24,9.44a3.65,3.65,0,0,0,.57,1.09c.12.13.6.07.79-.07s.19-.5.31-.75q3.21-7.08,6.43-14.14c.78-1.69,1.56-2.17,3.2-2a1.82,1.82,0,0,1,1.94,2c.05,1.1,0,2.21,0,3.32Z"/><path d="M244.68,77.46V66.67c0-.34,0-.69,0-1,0-.91.21-1.73,1.14-2a2.41,2.41,0,0,1,2.68.61c.69.86,1.34,1.76,2,2.67l12,17.41a7.53,7.53,0,0,0,.59.85c.12.13.4.27.51.22a.7.7,0,0,0,.25-.52c0-.55,0-1.1,0-1.66v-17c0-.48,0-1,0-1.45A1.17,1.17,0,0,1,265,63.55a1.22,1.22,0,0,1,1.53,1,6.19,6.19,0,0,1,.12,1.43q0,11,0,22a7,7,0,0,1-.12,1.65,1.75,1.75,0,0,1-3,.84,10.18,10.18,0,0,1-1.3-1.61L248.85,69.61a5.54,5.54,0,0,0-.58-.85,2.21,2.21,0,0,0-.64-.36,2.16,2.16,0,0,0-.34.7,15.33,15.33,0,0,0,0,1.66q0,8.82,0,17.63v1.45A1,1,0,0,1,246.13,91c-.91,0-1.34-.26-1.42-1.11a20.38,20.38,0,0,1,0-2.07V77.46Z"/><path d="M277.13,77.45c0-3.67,0-7.33,0-11,0-2.28.53-2.81,2.8-2.82,4.7,0,9.41,0,14.12,0a7.27,7.27,0,0,1,1.24,0,1.21,1.21,0,0,1,1,1.36,1.09,1.09,0,0,1-.9,1.21,9.5,9.5,0,0,1-1.85.16H282.34c-2.26,0-2.26,0-2.27,2.34,0,1.66,0,3.32,0,5,0,1.81.09,1.9,1.85,1.91h8.93a11.6,11.6,0,0,1,1.45,0A1.15,1.15,0,0,1,293.36,77a1,1,0,0,1-1.14,1.15c-3,0-6,0-8.93,0-3.53,0-3.21-.38-3.22,3.24V86c0,2.43,0,2.44,2.35,2.44,3.88,0,7.76,0,11.63,0,.49,0,1,0,1.46,0a1.09,1.09,0,0,1,1.09,1.24c0,.71-.31,1.2-1.08,1.27-.28,0-.55,0-.83,0H279.11c-1.46-.09-1.95-.55-2-2.07,0-3.8,0-7.61,0-11.41Z"/><path d="M350.5,82.14c-1.53,0-3.05.06-4.57,0a1.62,1.62,0,0,0-1.85,1.24q-1.11,3.12-2.34,6.2c-.51,1.29-1,1.57-2.18,1.42-.81-.11-1.11-.47-1-1.25a5,5,0,0,1,.34-1q4.45-11.58,8.94-23.18c.67-1.73,1.11-2,2.67-2.07a2.19,2.19,0,0,1,2.35,1.61c.67,1.81,1.39,3.6,2.1,5.4q3.56,9.06,7.1,18.12a.56.56,0,0,1,.08.2c0,.66,1,1.41-.12,2a1.93,1.93,0,0,1-2.77-.94c-.58-1.33-1-2.7-1.56-4.06-.34-.9-.71-1.8-1-2.71a1.32,1.32,0,0,0-1.42-1c-1.59,0-3.18,0-4.77,0Zm-.09-2.72c1.24,0,2.49,0,3.73,0,1,0,1.08-.23.73-1.14q-1.5-4-3-7.91c-.29-.78-.57-1.56-.9-2.31-.1-.21-.38-.34-.57-.51a2.53,2.53,0,0,0-.49.61q-1.93,5-3.83,10c-.39,1-.29,1.18.82,1.22S349.24,79.42,350.41,79.42Z"/><path d="M379.53,91.4a13.06,13.06,0,0,1-8.35-2.46,4.84,4.84,0,0,1-1.48-1.68,2.87,2.87,0,0,1-.11-2c.32-1,1.13-1.06,1.87-.3.53.54,1,1.14,1.58,1.64a9.7,9.7,0,0,0,10.1,1.48,4.57,4.57,0,0,0,2.38-5.88,4.83,4.83,0,0,0-2.92-2.5c-1.76-.6-3.56-1.07-5.34-1.61a19.24,19.24,0,0,1-3.14-1c-2.18-1.11-3.84-2.64-4-5.34-.18-2.91.58-5.33,3.18-6.92a12,12,0,0,1,9.79-1.09,8.65,8.65,0,0,1,3.82,2,4.71,4.71,0,0,1,1.1,1.68,1.94,1.94,0,0,1-.15,1.39c-.42.86-1.26.89-1.91.14a8.49,8.49,0,0,0-9.31-2.83A5.55,5.55,0,0,0,374,67.69c-2.26,2.65-1.29,5.4,1.32,6.69a28.66,28.66,0,0,0,3.94,1.24c1.77.57,3.56,1.08,5.29,1.76a6.34,6.34,0,0,1,4.17,6.53A6.94,6.94,0,0,1,384,90.56,10.36,10.36,0,0,1,379.53,91.4Z"/><path d="M210.75,91.35a12.1,12.1,0,0,1-6.13-1.22,12.33,12.33,0,0,1-7.17-9.75,18,18,0,0,1,.28-7.4,12.82,12.82,0,0,1,12-9.74,13.08,13.08,0,0,1,9,2.34,7.76,7.76,0,0,1,1.91,2.13,2.14,2.14,0,0,1,0,1.72c-.41.94-1.2,1-1.88.15A11.15,11.15,0,0,0,212.9,66c-4.81-1.34-10.58,2-12.05,7A14.35,14.35,0,0,0,201,81.9a10.37,10.37,0,0,0,15.46,5.32,18.4,18.4,0,0,0,2.71-2.79c.31-.32.91-.83,1.06-.74A2.48,2.48,0,0,1,221.36,85a2.78,2.78,0,0,1-.44,1.73,8.58,8.58,0,0,1-4.62,3.65A11.47,11.47,0,0,1,210.75,91.35Z"/><path d="M233.49,77.31V89.13c0,.68.14,1.43-.7,1.78a1.43,1.43,0,0,1-2.12-1.21,8.56,8.56,0,0,1,0-1.24V66.07a9,9,0,0,1,0-1c.13-1.11.59-1.54,1.58-1.48s1.23.41,1.25,1.53c0,2,0,4,0,6Z"/><path d="M187.37,119.13c0,1.25,0,2.49,0,3.74,0,.53.11,1.24-.69,1.25s-.89-.7-.89-1.35c0-1.38,0-2.76,0-4.15a7.58,7.58,0,0,0,.08-.82.68.68,0,0,0-.3-.48c-.09,0-.39.09-.46.22-.26.48-.47,1-.69,1.5a20.16,20.16,0,0,1-.88,1.88c-.58,1-1.47,1-2.12,0a8.76,8.76,0,0,1-.65-1.3c-.25-.57-.45-1.16-.74-1.71-.14-.27-.45-.45-.68-.68a3.12,3.12,0,0,0-.28.9c0,1.66,0,3.33,0,5,0,.5-.08,1-.76,1s-.81-.48-.81-1c0-2.77,0-5.54,0-8.31a1.07,1.07,0,0,1,.92-1.2,2.38,2.38,0,0,1,1.46.55,3.45,3.45,0,0,1,.7,1.25c.37.82.68,1.66,1.08,2.46a9.92,9.92,0,0,0,.88,1.27,10.76,10.76,0,0,0,.92-1.32c.43-.87.76-1.77,1.16-2.66a6.32,6.32,0,0,1,.58-1.09,1.13,1.13,0,0,1,1.46-.42,1,1,0,0,1,.72,1.11c0,1.46,0,2.91,0,4.36Z"/><path d="M364.3,119c0-1.32,0-2.63,0-3.94,0-.65,0-1.3.82-1.48a1.38,1.38,0,0,1,1.64,1c.38.81.7,1.64,1.06,2.46a12.85,12.85,0,0,0,.73,1.49,3.32,3.32,0,0,0,.67.68,3,3,0,0,0,.52-.61c.47-1,.9-2,1.36-3,.2-.44.33-1,.67-1.26a3,3,0,0,1,1.62-.55c.2,0,.57.74.58,1.15.05,2.76,0,5.52,0,8.28,0,.5-.06,1-.73,1a.85.85,0,0,1-.86-1c0-1.45,0-2.9.08-4.34a8.78,8.78,0,0,0,0-1,.61.61,0,0,0-.36-.44.58.58,0,0,0-.48.25c-.44.93-.84,1.88-1.25,2.83-.26.58-.52,1.19-1.28,1.18s-1.14-.63-1.42-1.31c-.36-.89-.77-1.77-1.2-2.63-.1-.19-.41-.27-.62-.4a1.6,1.6,0,0,0-.21.56c0,1.38,0,2.76,0,4.14,0,.35,0,.69,0,1s0,1-.65,1.08-.73-.5-.73-1C364.29,121.73,364.3,120.35,364.3,119Z"/><path d="M259.56,118.86c0-1.24,0-2.48,0-3.71s.1-1.34,1.26-1.37c1.31,0,2.62-.07,3.93,0,2.28.15,3.28,2,2.05,3.88a1.11,1.11,0,0,0,.19,1.71,2.7,2.7,0,0,1-1.71,4.61,35.66,35.66,0,0,1-4.74.09c-.66,0-1-.45-1-1.09v-4.13Zm3.63,3.74v0a13.83,13.83,0,0,0,1.44,0,1.31,1.31,0,0,0,1.3-1.32,1.34,1.34,0,0,0-1.19-1.61,13.92,13.92,0,0,0-2.66-.06,1.06,1.06,0,0,0-.75.53c-.61,1.53,0,2.47,1.66,2.5Zm-1.95-6c0,1.41.33,1.75,1.69,1.66a7,7,0,0,0,1.62-.35,1.25,1.25,0,0,0,.93-1.23,1.39,1.39,0,0,0-.94-1.46,5.22,5.22,0,0,0-1.63-.22C261.33,115,261.24,115.11,261.24,116.63Z"/><path d="M305.8,113.41a5.21,5.21,0,0,1,5.33,5.39c-.07,3.45-2.16,5.57-5.36,5.57s-5.25-2-5.32-5.39C300.39,116.08,302,113.64,305.8,113.41ZM302.36,119c0,2.25,1.45,3.85,3.44,3.83a3.82,3.82,0,0,0,3.6-4,3.73,3.73,0,0,0-3.6-3.79C303.64,115,302.33,116.51,302.36,119Z"/><path d="M360.3,119c0,1.1.05,2.21,0,3.31,0,.66.44,1.79-.74,1.78-1,0-.6-1.06-.62-1.68-.05-1.51,0-3,0-4.55a4,4,0,0,0-.24-.87,4.71,4.71,0,0,0-.71.7,6.11,6.11,0,0,0-.39,1c-.32.69-.66,1.37-1,2.06-.24.54-.59,1.08-1.21.9a2.26,2.26,0,0,1-1.21-1c-.48-.83-.76-1.77-1.18-2.64-.12-.25-.42-.42-.63-.63a2.88,2.88,0,0,0-.36.91c0,1.52,0,3,0,4.55,0,.27.15.61,0,.8a1.29,1.29,0,0,1-.78.5c-.17,0-.41-.27-.58-.45a.66.66,0,0,1-.07-.4q0-4.24,0-8.49a1.08,1.08,0,0,1,.91-1.18,1.15,1.15,0,0,1,1.37.64,12.77,12.77,0,0,1,.74,1.48c.44,1,.84,2,1.28,3,.25.58.71.47.92.07.56-1,1-2.12,1.5-3.17a6.72,6.72,0,0,1,.86-1.64,1.79,1.79,0,0,1,1.26-.37.89.89,0,0,1,.84,1V119Z"/><path d="M324,121.36c0,.42,0,.83,0,1.25-.05,1.58-.06,1.56-1.58,1a1.77,1.77,0,0,0-1.08.18c-3.46,1.26-6.11,0-6.91-2.8-.61-2.12-.6-4.26,1.13-6a5.59,5.59,0,0,1,6.16-1.1,4.56,4.56,0,0,1,1.49,1.32,1,1,0,0,1-.18.9c-.17.14-.64.07-.91-.05a9.08,9.08,0,0,0-1.77-1,3.75,3.75,0,0,0-4.56,4c.19,3,2.71,4.68,5.15,3.44a3.51,3.51,0,0,0,1.27-1.27c.44-.7.14-1.16-.69-1.24-.62-.07-1.25-.05-1.85-.17-.18,0-.37-.38-.43-.61s.18-.39.33-.45a5.57,5.57,0,0,1,3.84,0,1.06,1.06,0,0,1,.56.77,14.41,14.41,0,0,1,0,1.86Z"/><path d="M130.41,124.27C127,124.39,125.1,122,125,119a5.22,5.22,0,0,1,5.12-5.61c3.59,0,5.48,2.13,5.54,5.6A5,5,0,0,1,130.41,124.27Zm3.47-5.44a9.31,9.31,0,0,0-.35-1.62,3.52,3.52,0,0,0-4.44-2.06,4.11,4.11,0,0,0-2.31,4.6,4,4,0,0,0,3.25,3.1,3.72,3.72,0,0,0,3.53-2.4A11.91,11.91,0,0,0,133.88,118.83Z"/><path d="M202.35,118.71c0-1.31,0-2.62,0-3.92a.87.87,0,0,1,1-1,36.78,36.78,0,0,1,3.93,0c3,.31,4.77,3.13,4.09,6.25a5,5,0,0,1-4.67,4c-1,.1-2.07,0-3.1,0a1.09,1.09,0,0,1-1.25-1.26C202.37,121.47,202.35,120.09,202.35,118.71Zm3.37,3.87a3.46,3.46,0,0,0,3.28-1.37,3.94,3.94,0,0,0,.12-4.48,4.31,4.31,0,0,0-4.24-1.61.89.89,0,0,0-.88,1c0,1.87,0,3.74,0,5.6a.8.8,0,0,0,.9.89C205.17,122.59,205.45,122.58,205.72,122.58Z"/><path d="M327.46,119c0-1.31,0-2.62,0-3.93,0-1.09.27-1.29,1.4-1.33s2.35,0,3.52,0c1.47.06,2.7.86,2.84,2,.21,1.66.25,2.92-1.6,3.84-1,.51-1.05.62-.38,1.44.52.64,1.14,1.21,1.64,1.86.17.22.25.8.13.88a1.39,1.39,0,0,1-1.08.3,4.3,4.3,0,0,1-1.22-1.08c-.68-.77-1.28-1.62-2-2.37a1.21,1.21,0,0,0-1-.35c-.28.12-.48.64-.52,1-.09.68,0,1.39-.07,2.06,0,.3-.49.78-.71.76a1.36,1.36,0,0,1-.85-.71,2.27,2.27,0,0,1-.07-1V119Zm3.81-3.93c-1.87,0-2.17.25-2.14,2.1a2.69,2.69,0,0,0,.07.81c.09.24.31.55.51.59,1.08.18,2.18.4,3.16-.41a1.69,1.69,0,0,0-.78-3.08A5.61,5.61,0,0,0,331.27,115.11Z"/><path d="M114.32,119c0-1.31,0-2.63,0-3.94,0-.85.37-1.27,1.26-1.25,1.24,0,2.49,0,3.73,0a2.66,2.66,0,0,1,2.71,2.13,3.15,3.15,0,0,1-1.44,3.57c-1.2.72-1.21.72-.42,1.7.52.64,1.08,1.26,1.57,1.93a.8.8,0,0,1,0,.72c-.14.18-.54.36-.71.28a4.53,4.53,0,0,1-1.33-.9c-.75-.81-1.38-1.73-2.15-2.52a1.65,1.65,0,0,0-1.22-.42c-.19,0-.39.66-.44,1-.07.61,0,1.24,0,1.86s-.09,1-.76,1-.77-.49-.78-1V119Zm1.55-2.15c0,1.82.13,2,2,1.94.2,0,.41,0,.62,0a2.26,2.26,0,0,0,1.92-1.84c0-.92-.74-1.64-1.9-1.78a7.48,7.48,0,0,0-.82,0C116,115.09,115.89,115.22,115.87,116.81Z"/><path d="M13.22,119.05c0-1.31,0-2.62,0-3.93,0-1.11.25-1.3,1.38-1.34s2.35,0,3.52,0A2.73,2.73,0,0,1,21,116a3,3,0,0,1-1.5,3.5c-1.12.68-1.13.68-.4,1.59.52.65,1.07,1.27,1.56,1.93.13.19.24.62.14.7a1.18,1.18,0,0,1-.87.36,2.15,2.15,0,0,1-1-.65c-.61-.66-1.15-1.37-1.72-2.06a4.87,4.87,0,0,0-.83-.92,1.15,1.15,0,0,0-.9-.22,1.1,1.1,0,0,0-.49.8,20.37,20.37,0,0,0,0,2.07c0,.51-.1,1-.76,1a.87.87,0,0,1-.9-.94c0-1.38,0-2.76,0-4.14Zm3-4c-.16.08-.93.18-1.15.59A1.94,1.94,0,0,0,17,118.75h.41a2.23,2.23,0,0,0,2-1.81c0-1-.78-1.73-2.08-1.84C17.07,115.08,16.87,115.09,16.22,115.09Z"/><path d="M377.79,118.79c0-1.17-.05-2.34,0-3.51s.32-1.48,1.49-1.5c1.79,0,3.59,0,5.38,0,.3,0,.6.4.89.61-.29.22-.58.61-.89.63-1.24.08-2.48,0-3.72,0s-1.22.14-1.28,1.15c-.11,1.6.06,1.78,1.65,1.82.82,0,1.65,0,2.47.12.18,0,.44.37.45.57a.83.83,0,0,1-.38.65,2.37,2.37,0,0,1-1,.17c-.69,0-1.38,0-2.07,0s-1.16.32-1.13,1.11c0,.27,0,.55,0,.82,0,.81.4,1.1,1.15,1.08h2.9a2.93,2.93,0,0,1,1,0,1.47,1.47,0,0,1,.8.7c.14.48-.25.74-.72.77s-1,0-1.45,0c-1.31,0-2.62,0-3.93,0s-1.61-.36-1.66-1.59,0-2.49,0-3.73Z"/><path d="M289.89,119c0-1.38,0-2.76,0-4.14,0-.78.37-1.11,1.14-1.1,1.17,0,2.34,0,3.51,0,1.5.06,2.69.79,2.86,1.9.29,2,.17,2.94-1.51,3.88-1,.55-1,.61-.44,1.39s1.07,1.26,1.61,1.88c.29.34.54.75.07,1A1.38,1.38,0,0,1,296,124a3.54,3.54,0,0,1-1-1c-.59-.67-1.09-1.42-1.72-2a6.28,6.28,0,0,0-1.34-.78,9.25,9.25,0,0,0-.36,1.32,16.06,16.06,0,0,1-.08,1.85,1.16,1.16,0,0,1-.81.73c-.23,0-.7-.47-.72-.75-.07-1.44,0-2.89,0-4.33Zm1.66-2c0,1.66.09,1.77,1.72,1.7a5.07,5.07,0,0,0,1.59-.33,1.49,1.49,0,0,0,1-1.63,1.66,1.66,0,0,0-1.35-1.6,11.68,11.68,0,0,0-2.05-.06.8.8,0,0,0-.89.89C291.54,116.34,291.55,116.69,291.55,117Z"/><path d="M75.62,119c0-1.31,0-2.62,0-3.94a1.09,1.09,0,0,1,1.26-1.25c1.87,0,3.73,0,5.6,0,.44,0,.93.1.85.62a1.11,1.11,0,0,1-.82.65c-1.24.08-2.49,0-3.73,0-.55,0-1.24-.07-1.38.6a5.24,5.24,0,0,0,.06,2c0,.17.57.34.88.35,1,0,1.94,0,2.9.06.3,0,.58.42.87.65-.26.27-.5.73-.79.77-1,.1-1.93,0-2.9.07s-1.2.41-1.16,1.76c0,1.06.11,1.18,1.2,1.23s1.93,0,2.9,0a3.59,3.59,0,0,1,1.23.05c.32.12.55.49.82.75-.3.23-.59.48-.9.69-.1.06-.27,0-.41,0-1.66,0-3.32,0-5,0-1.34,0-1.47-.2-1.51-1.63,0-1.17,0-2.35,0-3.52Z"/><path d="M24.37,118.77c0-1.24,0-2.49,0-3.73,0-.83.32-1.29,1.23-1.28,1.8,0,3.59,0,5.39,0a1.06,1.06,0,0,1,.6.09c.21.13.48.39.46.58a.78.78,0,0,1-.51.55c-.75.08-1.51.07-2.27.09-.55,0-1.11,0-1.66,0s-1.24-.07-1.37.62a5.46,5.46,0,0,0,.09,2c0,.16.57.31.88.33.83,0,1.66,0,2.49,0,.55,0,1.25,0,1.2.76s-.71.74-1.29.74-1.38,0-2.07,0c-1.24.06-1.45.32-1.43,1.71,0,1.16.1,1.26,1.35,1.3,1,0,2.07,0,3.11,0a3.72,3.72,0,0,1,1.21.15.78.78,0,0,1,.39.64.88.88,0,0,1-.45.59,1.82,1.82,0,0,1-.81.12c-1.66,0-3.32,0-5,0-1.32,0-1.51-.22-1.55-1.6s0-2.49,0-3.73Z"/><path d="M102.12,117.86v-3.1c0-.53.11-1,.76-1s.87.49.87,1.09c0,1.73,0,3.45,0,5.18a2.48,2.48,0,0,0,1.32,2.39,2.39,2.39,0,0,0,3.74-2c.1-1.51,0-3,.05-4.55a5.74,5.74,0,0,1,0-1.44c.1-.32.48-.75.76-.77s.66.35.93.62a.83.83,0,0,1,.14.58,57.55,57.55,0,0,1-.31,6.17c-.34,2.34-1.46,3.18-3.84,3.17a6.68,6.68,0,0,1-2.76-.59,3,3,0,0,1-1.69-2.87v-2.9Z"/><path d="M219.72,123.73c.2-.53.29-.79.39-1q1.41-3.66,2.83-7.32a6.34,6.34,0,0,1,.52-1.12,1.36,1.36,0,0,1,2.47.12c1.15,2.8,2.22,5.63,3.3,8.46.17.44.29,1-.3,1.25a.89.89,0,0,1-1.2-.52c-.29-.54-.54-1.11-.79-1.68a1.3,1.3,0,0,0-1.66-.85,3.87,3.87,0,0,1-1.22.13,1.69,1.69,0,0,0-2.11,1.43,3,3,0,0,1-.66,1.27c-.17.2-.62.22-.93.2A2,2,0,0,1,219.72,123.73Zm4.83-4.08c1.44,0,1.64-.2,1.09-1.48-.28-.63-.24-1.48-1-1.85a20.58,20.58,0,0,0-1.05,1.89C223.08,119.38,223.28,119.62,224.55,119.65Z"/><path d="M44.26,123.53c-.1.13-.26.46-.44.48-.37,0-.93,0-1.1-.18a6.33,6.33,0,0,1-.81-1.65,1.37,1.37,0,0,0-1.4-1,4.3,4.3,0,0,1-.62,0c-2.27-.17-2.27-.17-3.31,1.93a2.09,2.09,0,0,1-.57.83,1.22,1.22,0,0,1-.94.07c-.15,0-.22-.44-.28-.69a.8.8,0,0,1,.06-.4c1.1-2.82,2.17-5.65,3.33-8.45a1.67,1.67,0,0,1,1.22-.86,1.64,1.64,0,0,1,1.27.8c1.23,2.9,2.37,5.86,3.54,8.79C44.23,123.26,44.23,123.33,44.26,123.53Zm-4.5-3.88c.13-.09.91-.47.86-.62a28.18,28.18,0,0,0-1.19-3c-.34.71-.69,1.41-1,2.12a1.08,1.08,0,0,0-.08.19C38,119.49,38.12,119.65,39.76,119.65Z"/><path d="M347.54,123.53c-.09.13-.17.42-.29.44-.38,0-.92.15-1.14,0a3,3,0,0,1-.8-1.4,1.61,1.61,0,0,0-2-1.34,1.48,1.48,0,0,1-.42,0c-1.57-.32-2.7.1-3.07,1.82a2,2,0,0,1-.28.55c-.26.48-.63.76-1.18.52s-.54-.7-.34-1.2c.35-.83.65-1.67,1-2.51q1.11-2.77,2.21-5.57a1.61,1.61,0,0,1,1.48-1.23c.83,0,1.16.56,1.42,1.26,1.06,2.76,2.16,5.52,3.24,8.27Zm-5.13-3.88c1.58,0,1.77-.15,1.32-1.37a23,23,0,0,0-1.06-2.18,22.8,22.8,0,0,0-1.16,2.25C341.05,119.54,341.15,119.63,342.41,119.65Z"/><path d="M91.24,119c0-1.38,0-2.76,0-4.14,0-.8.36-1.11,1.13-1.1,1.8,0,3.6,0,5.4,0,.49,0,1.09,0,1,.71,0,.25-.57.56-.89.58-1,.07-2.08,0-3.11,0-1.78,0-1.82,0-1.83,1.43s0,1.53,1.92,1.55h1.87c.43,0,.94.08.83.62a1.19,1.19,0,0,1-.76.81c-.81.12-1.66,0-2.48.1-.44,0-1.18.21-1.22.44a5.62,5.62,0,0,0,.06,2.2c0,.19.71.32,1.09.33,1.24,0,2.49,0,3.73,0a1.13,1.13,0,0,1,.83.65c.15.62-.3.83-.87.83-1.86,0-3.73,0-5.6,0-.83,0-1.07-.43-1.06-1.17C91.26,121.64,91.24,120.32,91.24,119Z"/><path d="M149.88,118.89v-4.14c0-.56.22-1,.83-1,2,0,4,0,6,0,.23,0,.46.38.69.58-.28.23-.55.64-.85.66-1.23.08-2.48,0-3.72.06-.42,0-1.14.27-1.18.49a6.42,6.42,0,0,0,.13,2.18c0,.15.59.26.91.27.9,0,1.8,0,2.7,0,.27,0,.53.32.79.49-.23.31-.41.83-.69.88a12.1,12.1,0,0,1-2.26.11c-1.68,0-1.85.27-1.74,2,.05.81.44,1.07,1.18,1.06,1.31,0,2.63,0,3.94,0a1.12,1.12,0,0,1,.78.69c.15.47-.24.76-.71.77-1.93,0-3.86,0-5.8,0-.8,0-1-.56-1-1.27,0-1.31,0-2.62,0-3.93Z"/><path d="M191.4,118.87c0-1.31,0-2.62,0-3.93,0-.74.21-1.18,1.05-1.17,1.87,0,3.73,0,5.6,0,.45,0,.86.12.84.66s-.42.65-.87.65c-1.24,0-2.48,0-3.73,0-1.08,0-1.17.16-1.23,1.19-.09,1.59,0,1.74,1.7,1.78.76,0,1.53,0,2.28,0,.24,0,.64.38.64.58a1.22,1.22,0,0,1-.55.76,1.55,1.55,0,0,1-.79.13c-.56,0-1.11,0-1.66,0A1.7,1.7,0,0,0,193,122a1.16,1.16,0,0,0,.79.53,10.08,10.08,0,0,0,1.65,0h2.49c.53,0,1,.21,1,.81s-.55.68-1,.69c-1.8,0-3.6,0-5.39,0-.79,0-1.14-.32-1.13-1.1C191.41,121.64,191.4,120.26,191.4,118.87Z"/><path d="M247.22,117.54c0-1-.05-2.08,0-3.11a1.15,1.15,0,0,1,.79-.75c.21,0,.62.41.73.72a3.59,3.59,0,0,1,.05,1.23c0,1.18,0,2.36,0,3.53a6.92,6.92,0,0,0,.36,2,2.59,2.59,0,0,0,2.39,1.68,2.47,2.47,0,0,0,2.26-1.83,9.91,9.91,0,0,0,.29-2.25c0-1.38,0-2.76,0-4.15,0-.52.16-1,.78-1s.9.5.9,1.15c0,1.52,0,3,0,4.57a10,10,0,0,1-.05,1.45,4.08,4.08,0,0,1-4.37,3.58,4,4,0,0,1-4.21-4.14c0-.9,0-1.8,0-2.7Z"/><path d="M239.9,124.32a13.19,13.19,0,0,1-2.3-.57,2.78,2.78,0,0,1-1.16-1.1,1,1,0,0,1,.16-.91c.1-.13.59-.06.84.05.62.28,1.18.67,1.8.95a2.28,2.28,0,0,0,1,.18,2,2,0,0,0,2-1.47c.09-.77-.37-1.32-1.51-1.68-.78-.25-1.61-.38-2.39-.65a2.73,2.73,0,0,1-1.84-2.72,2.53,2.53,0,0,1,1.59-2.44,5.07,5.07,0,0,1,4.77.07,1.89,1.89,0,0,1,.84.86,1.06,1.06,0,0,1-.13.93c-.1.14-.58.11-.84,0-.7-.27-1.34-.68-2.05-.91a2,2,0,0,0-1.18.07c-.66.23-1.34.58-1.32,1.41s.65,1.12,1.36,1.33a19,19,0,0,1,2.73.92c1.52.68,1.85,1.4,1.65,3.16a2.58,2.58,0,0,1-2.27,2.32C241.17,124.23,240.69,124.24,239.9,124.32Z"/><path d="M6.1,113.4a4.3,4.3,0,0,1,3.31,1.39A1.46,1.46,0,0,1,9.67,116c-.3.58-.8.28-1.19-.06a2.69,2.69,0,0,0-.33-.26,3.58,3.58,0,0,0-4.06-.15,4.11,4.11,0,0,0-1.6,4.2,3.8,3.8,0,0,0,3.3,3,3.23,3.23,0,0,0,2.9-1.26c.28-.34.58-.6,1-.22a.84.84,0,0,1,.14,1.26,4.48,4.48,0,0,1-4,1.83c-3.08.08-5.18-2.22-5.19-5.46A5.22,5.22,0,0,1,6.1,113.4Z"/><path d="M282,113.78c.55,0,1.1,0,1.65,0a3.1,3.1,0,0,1,3,2.84,2.92,2.92,0,0,1-2.44,3.48,9.25,9.25,0,0,1-2.23.26c-.9,0-1.23.4-1.21,1.26a6.21,6.21,0,0,1-.1,1.83c-.07.29-.55.58-.89.64s-.61-.34-.69-.6a5.49,5.49,0,0,1-.18-1.62c0-1.91.17-3.82.12-5.72,0-2.35-.08-2.38,2.32-2.39H282ZM280.77,117c0,1.82,0,1.85,1.58,1.86,1.71,0,2.58-.63,2.59-1.91s-1-1.88-2.66-1.87C280.79,115.1,280.76,115.14,280.77,117Z"/><path d="M139.07,119c0-1.38,0-2.76,0-4.14,0-.76.33-1.14,1.12-1.12,1.18,0,2.35,0,3.52,0a3,3,0,0,1,2.91,2.69c.18,1.83-.5,3.07-2.12,3.54a11.65,11.65,0,0,1-2.64.34c-.79,0-1.12.38-1.11,1.14,0,.55,0,1.11,0,1.66a.87.87,0,0,1-.87,1c-.65,0-.78-.44-.78-1s0-1.37,0-2.06Zm1.69-2.18a5,5,0,0,0,0,1.22c.07.28.35.7.57.71a6.58,6.58,0,0,0,2.43-.1,1.79,1.79,0,0,0,.39-3.15,3.78,3.78,0,0,0-3-.33c-.18,0-.37.39-.42.62A5,5,0,0,0,140.76,116.85Z"/><path d="M72.67,114.32l-.27.75L69.29,123a1.06,1.06,0,0,1-.18.37c-.34.29-.67.7-1.07.79-.61.14-1-.27-1.24-.86-1.06-2.69-2.15-5.38-3.23-8.07a1.21,1.21,0,0,1-.12-.61c.07-.3.2-.81.38-.84a1.45,1.45,0,0,1,1.09.27,2.6,2.6,0,0,1,.57,1.08c.6,1.69,1.17,3.39,1.76,5.08a4.33,4.33,0,0,0,.44.92c.1.16.33.23.49.34a2.67,2.67,0,0,0,.29-.48c.71-2,1.42-4,2.1-6.06.22-.63.49-1.21,1.25-1.14C72.13,113.8,72.41,114.14,72.67,114.32Z"/><path d="M50.74,113.78c1.18,0,2.36,0,3.53,0,.45,0,.93.15.82.66-.06.26-.54.55-.87.62a11.4,11.4,0,0,1-1.66,0,1,1,0,0,0-1,1.05c0,1,0,1.93.06,2.9,0,1.24.11,2.48.1,3.72,0,.62-.1,1.36-.94,1.35s-.92-.67-.92-1.34v-5.4c0-2.16,0-2.15-2.22-2.29-.21,0-.48,0-.61-.06a1.5,1.5,0,0,1-.52-.73c0-.11.32-.46.52-.47.82-.07,1.65,0,2.48,0,.42,0,.84,0,1.25,0Z"/><path d="M60.06,119c0,1.44,0,2.89,0,4.33a1.13,1.13,0,0,1-.73.79c-.62.14-.83-.37-.83-.89,0-2.89,0-5.78,0-8.66,0-.51.19-1,.83-.93s.79.47.79,1c0,1.44,0,2.89,0,4.33Z"/><path d="M215.15,118.81c0-1.45,0-2.91,0-4.36,0-.27.38-.79.48-.76a1.74,1.74,0,0,1,1,.58,1.82,1.82,0,0,1,.18,1c0,2.49,0,5,0,7.47v.2c0,.6-.18,1.16-.89,1.19s-.75-.63-.75-1.17c0-1.38,0-2.77,0-4.15Z"/><path d="M167.29,120.83a16.07,16.07,0,0,1-1.84,0c-.21,0-.55-.33-.54-.48s.25-.81.41-.82c1.34-.07,2.7-.06,4.05,0,.14,0,.39.42.38.64a.73.73,0,0,1-.43.59,19.38,19.38,0,0,1-2,.22Z"/><path d="M273.17,120.92c-.68,0-1.36-.06-2-.17a.77.77,0,0,1-.52-.53.73.73,0,0,1,.37-.62,6.28,6.28,0,0,1,4.17,0c.22.08.4.51.43.8,0,.14-.36.42-.59.45-.6.06-1.22,0-1.83,0Z"/></g></g></svg>
