<svg width="113" height="59" viewBox="0 0 113 59" fill="none" xmlns="http://www.w3.org/2000/svg">
<path d="M-1.09565e-06 31.5855L0 58.2946L19.3127 58.2946L-1.09565e-06 31.5855Z" fill="#65DEF1" fill-opacity="0.8"/>
<path d="M25.0654 31.5854H0V58.2945L25.0654 31.5854Z" fill="#65DEF1" fill-opacity="0.8"/>
<rect x="43.5562" y="31.9963" width="7.39636" height="26.2982" fill="#65DEF1" fill-opacity="0.8"/>
<path d="M25.8872 31.5855L25.8872 58.2946L50.9527 58.2946L25.8872 31.5855Z" fill="#65DEF1" fill-opacity="0.8"/>
<path fill-rule="evenodd" clip-rule="evenodd" d="M25.0653 52.1617C25.0654 52.1515 25.0655 52.1412 25.0655 52.1309C25.0655 50.5423 23.4098 49.2545 21.3673 49.2545C19.3249 49.2545 17.6692 50.5423 17.6692 52.1309C17.6692 52.1309 17.6692 52.1309 17.6692 52.131H17.6689V58.2946H25.0653V52.1617Z" fill="#65DEF1" fill-opacity="0.8"/>
<path fill-rule="evenodd" clip-rule="evenodd" d="M0 0H25.0654L10.9081 15.0857L17.6689 24.4358V20.5454H17.6691C17.6692 18.9568 19.3249 17.6691 21.3673 17.6691C23.4098 17.6691 25.0655 18.9569 25.0655 20.5454L25.0653 20.5763V26.709H19.3126L19.3127 26.7091L0 26.7091V26.7091V2.09808e-05V0ZM43.5563 0.410893H50.9527V26.7091H50.9526L50.9527 26.7091L25.8872 26.7091L25.8872 2.09808e-05L43.5563 18.8277V0.410893ZM61.8416 0.616363H52.5962V26.9145H61.8416C61.8416 26.9145 73.1416 25.2709 73.1416 13.56C73.1416 1.84909 61.8416 0.616363 61.8416 0.616363ZM74.9909 0.616363V26.7091H92.8654V18.08H88.7564L92.8654 15.6145V0.616363H74.9909ZM94.5091 0.821818V26.7091H113L106.22 17.4636C106.22 17.4636 110.74 16.6418 110.74 9.24545C110.74 1.23273 102.316 0.821818 102.316 0.821818H94.5091ZM25.4763 12.7382C25.4763 15.0076 23.6366 16.8473 21.3672 16.8473C19.0978 16.8473 17.2581 15.0076 17.2581 12.7382C17.2581 10.4688 19.0978 8.62914 21.3672 8.62914C23.6366 8.62914 25.4763 10.4688 25.4763 12.7382ZM19.5181 12.7382C19.5181 12.7382 19.5181 14.5872 21.3672 14.5872C23.2162 14.5872 23.2162 12.7382 23.2162 12.7382H19.5181Z" fill="black" fill-opacity="0.83"/>
<path fill-rule="evenodd" clip-rule="evenodd" d="M21.3674 48.4327C23.6368 48.4327 25.4765 46.593 25.4765 44.3236C25.4765 42.0542 23.6368 40.2145 21.3674 40.2145C19.098 40.2145 17.2583 42.0542 17.2583 44.3236C17.2583 46.593 19.098 48.4327 21.3674 48.4327ZM21.3673 46.1727C19.5182 46.1727 19.5182 44.3236 19.5182 44.3236H23.2164C23.2164 44.3236 23.2164 46.1727 21.3673 46.1727Z" fill="#65DEF1" fill-opacity="0.8"/>
<path d="M78.0726 45.1454C70.0599 53.3636 73.1417 50.2818 64.9235 58.2945C57.6615 58.2945 51.7744 52.4075 51.7744 45.1454C51.7744 37.8834 57.6615 31.9963 64.9235 31.9963C72.1855 31.9963 78.0726 37.8834 78.0726 45.1454Z" fill="#65DEF1" fill-opacity="0.8"/>
<path d="M65.1294 58.2946V45.3509H78.073L65.1294 58.2946Z" fill="#65DEF1" fill-opacity="0.8"/>
</svg>
