<svg width="184" height="168" viewBox="0 0 184 168" fill="none" xmlns="http://www.w3.org/2000/svg">
<path d="M8.47644 34.5041V0.525772H18.3091C20.083 0.527271 21.8382 0.88433 23.4691 1.57546C25.042 2.21871 26.4795 3.14794 27.7074 4.31514C28.8977 5.47416 29.8511 6.84992 30.5152 8.36693C31.2091 9.91739 31.57 11.5939 31.5747 13.29C31.5838 15.0043 31.2225 16.7008 30.5152 18.2655C29.7978 19.7799 28.7902 21.1417 27.5484 22.2753C26.2946 23.4425 24.8321 24.368 23.236 25.0045C21.5584 25.7006 19.7571 26.0575 17.9383 26.0542V34.5356L8.47644 34.5041Z" fill="black"/>
<path d="M38.144 17.6672C38.1279 15.418 38.575 13.1893 39.4578 11.1171C41.1697 7.08524 44.3893 3.86553 48.4428 2.1318C50.5095 1.23236 52.7442 0.774548 55.0015 0.788198C57.2934 0.769834 59.5637 1.22754 61.6661 2.1318C63.6885 2.9932 65.5263 4.2295 67.0804 5.77421C68.6238 7.31184 69.854 9.12935 70.7041 11.1276C71.5961 13.1943 72.054 15.4194 72.0497 17.6672C72.0643 19.9104 71.6135 22.1327 70.7252 24.1962C69.8773 26.1863 68.6465 27.9938 67.1016 29.5181C65.5325 31.0306 63.688 32.2345 61.6661 33.0661C59.5567 33.9445 57.2896 34.3909 55.0015 34.3782C52.7372 34.3914 50.4943 33.9449 48.411 33.0661C46.4069 32.2222 44.5837 31.0073 43.0391 29.4866C41.4973 27.9619 40.2701 26.1543 39.426 24.1647C38.5566 22.1079 38.1203 19.8969 38.144 17.6672Z" fill="black"/>
<path d="M79.5831 23.2725H90.8992C89.3982 23.2803 87.9119 22.9801 86.5338 22.3907C83.8395 21.2421 81.6903 19.1167 80.5261 16.4495C79.9249 15.0837 79.6146 13.6096 79.6146 12.1196C79.6146 10.6295 79.9249 9.15546 80.5261 7.78961C81.1142 6.4707 81.9441 5.27128 82.9737 4.25216C84.0087 3.23544 85.2271 2.42008 86.5656 1.84838C87.946 1.26632 89.4307 0.966297 90.931 0.966297C92.4312 0.966297 93.9159 1.26632 95.2963 1.84838C96.6386 2.41894 97.8606 3.23435 98.8988 4.25216C99.9138 5.27212 100.726 6.47213 101.293 7.78961C101.886 9.14078 102.189 10.5991 102.183 12.0723H97.9452C99.5131 13.2207 100.802 14.7019 101.717 16.4075C102.688 18.1629 103.185 20.1373 103.158 22.1388C103.174 23.7933 102.845 25.4333 102.194 26.9569C101.577 28.4081 100.698 29.7351 99.5981 30.8722C98.4782 31.9867 97.1551 32.8808 95.6989 33.5069C94.1945 34.1532 92.5707 34.482 90.931 34.4726C89.4312 34.479 87.9459 34.1825 86.5656 33.6014C85.225 33.0382 84.0057 32.2258 82.9737 31.2081C81.9392 30.1891 81.1087 28.9852 80.5261 27.6602C79.9053 26.2791 79.584 24.7843 79.5831 23.2725Z" fill="black"/>
<path d="M110.088 8.58737V0.851177H137.636V8.58737H129.435V34.5356H118.289V8.58737H110.088Z" fill="black"/>
<path d="M0 78.381L17.2178 44.9905L22.7486 55.5713L28.2689 44.9905L45.5608 78.381H0Z" fill="black"/>
<path d="M48.7395 61.8695C48.7103 59.6233 49.1429 57.3947 50.011 55.3194C50.8509 53.3209 52.0744 51.5028 53.6135 49.966C55.1588 48.428 56.9854 47.1954 58.996 46.3341C61.072 45.4291 63.3184 44.9711 65.5864 44.9905C67.875 44.9711 70.1421 45.4289 72.2404 46.3341C74.2667 47.1896 76.1083 48.4226 77.6653 49.966C79.2108 51.502 80.4413 53.3199 81.289 55.3194C82.6 58.3959 82.9555 61.7898 82.3101 65.0675C81.6646 68.3451 80.0475 71.3577 77.6653 73.7204C76.1032 75.2445 74.262 76.4593 72.2404 77.2999C70.1353 78.18 67.8713 78.6264 65.5864 78.612C63.3221 78.6264 61.0789 78.1798 58.996 77.2999C56.9901 76.4535 55.1638 75.2391 53.6135 73.7204C52.0748 72.1953 50.8512 70.3876 50.011 68.3985C49.142 66.3309 48.7094 64.1089 48.7395 61.8695Z" fill="black"/>
<path d="M92.319 78.612V45.022H101.855C104.123 45.0034 106.371 45.4501 108.456 46.3341C112.535 48.0242 115.785 51.2259 117.515 55.2564C118.398 57.3257 118.853 59.5494 118.853 61.796C118.853 64.0425 118.398 66.2663 117.515 68.3355C115.767 72.359 112.523 75.5615 108.456 77.2789C106.372 78.1695 104.125 78.6233 101.855 78.612H92.319Z" fill="black"/>
<path d="M124.466 78.4755V45.3579H147.49V64.1473L141.673 67.4328H147.49V78.4755H124.466Z" fill="black"/>
<path d="M158.382 78.5385V45.5573H168.787C172.07 45.5397 175.244 46.7248 177.698 48.8848C178.836 49.901 179.759 51.1322 180.41 52.5063C181.073 53.9016 181.413 55.4256 181.406 56.9674C181.407 57.9825 181.25 58.9916 180.94 59.959C180.641 60.9095 180.21 61.814 179.658 62.6462C179.087 63.4867 178.41 64.252 177.645 64.924C176.837 65.6113 175.943 66.1934 174.985 66.656L183.695 78.5175H158.382V78.5385Z" fill="black"/>
<path d="M7.48045 122.289V88.6995L29.4556 111.793V88.6995H39.2565V122.289H7.48045Z" fill="black"/>
<path d="M47.4574 122.195V88.9514H56.9087V122.195H47.4574Z" fill="black"/>
<path d="M66.2116 111.289H77.5276C76.0266 111.297 74.5403 110.996 73.1622 110.407C70.4539 109.257 68.2928 107.124 67.1228 104.445C66.5148 103.072 66.2044 101.588 66.2116 100.089C66.2052 98.6063 66.5157 97.1396 67.1228 95.7848C68.3026 93.1174 70.4615 90.9937 73.1622 89.8436C74.5409 89.255 76.0263 88.9514 77.5276 88.9514C79.0288 88.9514 80.5143 89.255 81.893 89.8436C83.2352 90.4142 84.4573 91.2296 85.4954 92.2474C86.5349 93.2664 87.366 94.4747 87.943 95.8058C88.54 97.1667 88.8431 98.6362 88.833 100.12H84.5948C86.1593 101.268 87.4476 102.745 88.3668 104.445C89.3356 106.201 89.8319 108.175 89.8078 110.176C89.8258 111.835 89.4938 113.48 88.833 115.005C88.2086 116.459 87.3136 117.783 86.1947 118.909C85.0748 120.024 83.7517 120.918 82.2956 121.544C80.7925 122.195 79.1678 122.524 77.5276 122.51C76.0278 122.516 74.5425 122.22 73.1622 121.639C71.8216 121.075 70.6024 120.263 69.5703 119.245C68.5358 118.226 67.7053 117.022 67.1228 115.697C66.51 114.308 66.1995 112.805 66.2116 111.289Z" fill="black"/>
<path d="M98.4644 111.289H109.77C108.269 111.297 106.783 110.996 105.404 110.407C102.696 109.257 100.535 107.124 99.365 104.445C98.7607 103.071 98.4539 101.587 98.4644 100.089C98.4547 98.6071 98.7616 97.1404 99.365 95.7848C100.545 93.1174 102.704 90.9937 105.404 89.8436C106.783 89.255 108.269 88.9514 109.77 88.9514C111.271 88.9514 112.757 89.255 114.135 89.8436C115.48 90.4104 116.702 91.2262 117.738 92.2474C118.766 93.2589 119.59 94.4561 120.164 95.7743C120.761 97.1352 121.064 98.6047 121.054 100.089H116.816C118.405 101.222 119.719 102.692 120.662 104.392C121.631 106.149 122.127 108.122 122.103 110.124C122.119 111.782 121.791 113.425 121.139 114.952C120.506 116.404 119.608 117.728 118.49 118.857C117.37 119.971 116.047 120.866 114.591 121.492C113.088 122.142 111.463 122.471 109.823 122.457C108.323 122.464 106.838 122.167 105.457 121.586C104.117 121.023 102.898 120.211 101.866 119.193C100.831 118.174 100.001 116.97 99.418 115.645C98.7975 114.274 98.4727 112.791 98.4644 111.289Z" fill="black"/>
<path d="M8.60358 167.552V134.308H18.0654V167.552H8.60358Z" fill="black"/>
<path d="M23.0559 167.552L40.2631 134.161L45.7833 144.753L51.3036 134.161L68.6061 167.552H23.0559Z" fill="black"/>
<path d="M69.814 151.051C69.7971 148.802 70.2442 146.573 71.1279 144.501C71.974 142.5 73.2007 140.679 74.741 139.137C76.2833 137.6 78.1062 136.368 80.1129 135.505C82.1909 134.606 84.4359 134.148 86.7033 134.161C88.9947 134.148 91.264 134.606 93.3679 135.505C95.3889 136.364 97.2264 137.597 98.7823 139.137C100.326 140.678 101.556 142.499 102.406 144.501C103.28 146.572 103.73 148.795 103.73 151.04C103.73 153.286 103.28 155.508 102.406 157.58C101.558 159.567 100.327 161.371 98.7823 162.891C95.5688 166.042 91.2247 167.802 86.7033 167.783C84.4391 167.796 82.1962 167.35 80.1129 166.471C78.1068 165.631 76.2829 164.415 74.741 162.891C73.169 161.339 71.9239 159.494 71.0781 157.461C70.2323 155.428 69.8026 153.249 69.814 151.051Z" fill="black"/>
</svg>
