<svg width="91" height="59" viewBox="0 0 91 59" fill="none" xmlns="http://www.w3.org/2000/svg">
<path d="M20 59V33H27.6C27.6 33 35.8 33.4127 35.8 41.4603C35.8 48.8889 31.4 49.7143 31.4 49.7143L38 59H20Z" fill="#FF01FB" fill-opacity="0.5"/>
<path d="M27 59L13.5 32.5L0 59H27Z" fill="#FF01FB" fill-opacity="0.5"/>
<path d="M69 7V1H90.5V7H84V27.5H75.5V7H69Z" fill="black" fill-opacity="0.83"/>
<path d="M32 38.1132V32H53V38.1132H46.6512V59H38.3488V38.1132H32Z" fill="#FF01FB" fill-opacity="0.5"/>
<path d="M9.5 20V27H2V13.75V0.5H11.5C11.5 0.5 19.5 1.5 19.5 10C19.5 18.5 11.5 20 11.5 20H9.5Z" fill="black" fill-opacity="0.83"/>
<circle cx="34.5" cy="13.5" r="13.5" fill="black" fill-opacity="0.83"/>
<path d="M63.5008 9.49989H67.0008C67.0008 5.9999 65.3585 3.01625 62.0008 1.49989C59.5094 0.374743 57.0197 0.437303 54.501 1.49989C51.001 2.97645 49.5916 5.70985 49.4982 9.5C49.3259 16.5 56.5004 18.3423 56.5004 18.3423H49.4983C49.4978 22 51.0149 24.3411 54.0008 25.9999C56.9025 27.612 59.5499 27.5201 62.5008 25.9999C65.6301 24.3878 67.117 21.999 67.5008 18.4999C68.2686 11.5 63.5008 9.49989 63.5008 9.49989Z" fill="black" fill-opacity="0.83"/>
</svg>
