<svg width="99" height="60" viewBox="0 0 99 60" fill="none" xmlns="http://www.w3.org/2000/svg">
<path d="M67 7V1H88.5V7H82V27.5H73.5V7H67Z" fill="black" fill-opacity="0.83"/>
<path d="M7.5 20V27H0V13.75V0.5H9.5C9.5 0.5 17.5 1.5 17.5 10C17.5 18.5 9.5 20 9.5 20H7.5Z" fill="black" fill-opacity="0.83"/>
<circle cx="32.5" cy="13.5" r="13.5" fill="black" fill-opacity="0.83"/>
<path d="M61.5008 9.49989H65.0008C65.0008 5.9999 63.3585 3.01625 60.0008 1.49989C57.5094 0.374743 55.0197 0.437303 52.501 1.49989C49.001 2.97645 47.5916 5.70985 47.4982 9.5C47.3259 16.5 54.5004 18.3423 54.5004 18.3423H47.4983C47.4978 22 49.0149 24.3411 52.0008 25.9999C54.9025 27.612 57.5499 27.5201 60.5008 25.9999C63.6301 24.3878 65.117 21.999 65.5008 18.4999C66.2686 11.5 61.5008 9.49989 61.5008 9.49989Z" fill="black" fill-opacity="0.83"/>
<path d="M0 59V31H19V46.8886L14.1994 49.6667H19V59H0Z" fill="#470FF4" fill-opacity="0.8"/>
<path d="M19 31H48L37.8769 48.1609L44.4556 59H22.5444L29.1366 48.1609L19 31Z" fill="#470FF4" fill-opacity="0.8"/>
<path d="M37 37.4503V31H43.7741H53.0043H59.7784V37.4503H53.0043V59.0817H43.7741V37.4503H37Z" fill="#470FF4" fill-opacity="0.8"/>
<path d="M60 59V31H67.9367C69.2481 31 70.4906 31.2565 71.6644 31.7694C72.8381 32.2731 73.8606 32.9601 74.7318 33.8302C75.6121 34.7004 76.3044 35.7262 76.8088 36.9078C77.3132 38.0801 77.5653 39.3395 77.5653 40.686C77.5653 41.5653 77.4461 42.4125 77.2077 43.2277C76.9784 44.0429 76.6529 44.8031 76.2311 45.5083C75.8093 46.2136 75.2957 46.8593 74.6905 47.4455C74.0945 48.0226 73.4204 48.5172 72.6685 48.9293L80 59H67.9367H60Z" fill="#470FF4" fill-opacity="0.8"/>
<path d="M70 59L84.5 31L99 59H70Z" fill="#470FF4" fill-opacity="0.8"/>
</svg>
