<svg width="86" height="20" viewBox="0 0 86 20" fill="none" xmlns="http://www.w3.org/2000/svg">
<path d="M25.8902 3.80839C25.7385 3.26549 25.4424 2.77053 25.0313 2.37286C24.6202 1.97519 24.1085 1.68871 23.5472 1.54197C21.4929 1 13.2245 1 13.2245 1C13.2245 1 4.95614 1.01642 2.90178 1.55839C2.34054 1.70513 1.82886 1.99162 1.41776 2.38928C1.00665 2.78695 0.710492 3.28191 0.558797 3.82482C-0.0626041 7.35584 -0.30709 12.7361 0.575775 16.1259C0.72747 16.6688 1.02363 17.1638 1.43473 17.5614C1.84584 17.9591 2.35752 18.2456 2.91876 18.3923C4.97312 18.9343 13.2415 18.9343 13.2415 18.9343C13.2415 18.9343 21.5099 18.9343 23.5642 18.3923C24.1255 18.2456 24.6371 17.9591 25.0483 17.5614C25.4594 17.1638 25.7555 16.6688 25.9072 16.1259C26.5626 12.5949 26.7646 7.21296 25.8902 3.80839ZM10.5929 13.8102V6.12409L17.4521 9.96715L10.5929 13.8102Z" fill="#C10130"/>
<path d="M38.4867 4.7547H42.4001C42.4001 5.1571 42.3833 5.52261 42.3498 5.85124C42.3162 6.17986 42.2492 6.48501 42.1486 6.76669C42.0077 7.16238 41.8166 7.51448 41.5751 7.82299C41.3337 8.12478 41.0487 8.37964 40.72 8.58754C40.3981 8.78874 40.0427 8.94299 39.6537 9.0503C39.2647 9.15761 38.8556 9.21126 38.4264 9.21126C37.8362 9.21126 37.2963 9.11401 36.8067 8.91952C36.3238 8.72503 35.908 8.45341 35.5593 8.10467C35.2105 7.74921 34.9389 7.3267 34.7444 6.83711C34.5499 6.34082 34.4527 5.79423 34.4527 5.19734C34.4527 4.60716 34.5466 4.06727 34.7344 3.57769C34.9289 3.0814 35.2005 2.65888 35.5492 2.31014C35.9047 1.96139 36.3306 1.68977 36.8268 1.49528C37.3231 1.30079 37.8764 1.20354 38.4867 1.20354C39.2781 1.20354 39.9723 1.37456 40.5691 1.7166C41.166 2.05864 41.6389 2.58846 41.9876 3.30607L40.1164 4.08069C39.9421 3.66488 39.714 3.36643 39.4324 3.18535C39.1574 3.00427 38.8422 2.91373 38.4867 2.91373C38.1916 2.91373 37.9234 2.97074 37.6819 3.08475C37.4405 3.19206 37.2326 3.34967 37.0582 3.55757C36.8906 3.75877 36.7564 4.00356 36.6558 4.29195C36.5619 4.58033 36.515 4.90225 36.515 5.2577C36.515 5.57962 36.5552 5.87806 36.6357 6.15304C36.7229 6.42801 36.8503 6.66609 37.018 6.86729C37.1856 7.06849 37.3936 7.2261 37.6417 7.34011C37.8898 7.44742 38.1782 7.50107 38.5069 7.50107C38.7013 7.50107 38.8891 7.48095 39.0702 7.44071C39.2513 7.39376 39.4122 7.32334 39.5531 7.22945C39.7006 7.12885 39.8214 7.00142 39.9152 6.84717C40.0091 6.69292 40.0729 6.50513 40.1064 6.28382H38.4867V4.7547ZM45.2961 3.83925V6.74657C45.2961 7.3837 45.6046 7.70227 46.2217 7.70227C46.8387 7.70227 47.1472 7.3837 47.1472 6.74657V3.83925H48.968V7.09867C48.968 7.79616 48.7366 8.31928 48.2739 8.66802C47.8178 9.01677 47.1338 9.19114 46.2217 9.19114C45.3096 9.19114 44.6221 9.01677 44.1594 8.66802C43.7033 8.31928 43.4753 7.79616 43.4753 7.09867V3.83925H45.2961ZM51.8949 6.40453C51.8949 6.5722 51.9251 6.72981 51.9854 6.87735C52.0458 7.01819 52.1263 7.14226 52.2269 7.24957C52.3342 7.35688 52.4583 7.44071 52.5991 7.50107C52.7467 7.56143 52.9043 7.59161 53.0719 7.59161C53.2329 7.59161 53.3838 7.56143 53.5246 7.50107C53.6722 7.44071 53.7962 7.35688 53.8968 7.24957C54.0041 7.14226 54.088 7.01819 54.1483 6.87735C54.2154 6.73651 54.2489 6.58561 54.2489 6.42465C54.2489 6.2637 54.2154 6.1128 54.1483 5.97196C54.088 5.82441 54.0041 5.69699 53.8968 5.58968C53.7962 5.48237 53.6722 5.39854 53.5246 5.33818C53.3838 5.27782 53.2329 5.24764 53.0719 5.24764C52.9043 5.24764 52.7467 5.27782 52.5991 5.33818C52.4583 5.39854 52.3342 5.48237 52.2269 5.58968C52.1263 5.69699 52.0458 5.82106 51.9854 5.9619C51.9251 6.09603 51.8949 6.24358 51.8949 6.40453ZM54.1886 3.83925H56.0195V9H54.1886V8.42658C53.7996 8.91617 53.2731 9.16096 52.6092 9.16096C52.2336 9.16096 51.8882 9.09389 51.573 8.95976C51.2578 8.81892 50.9828 8.62443 50.7481 8.37628C50.5133 8.12814 50.3289 7.8364 50.1948 7.50107C50.0674 7.16574 50.0036 6.80023 50.0036 6.40453C50.0036 6.03567 50.0674 5.68693 50.1948 5.3583C50.3222 5.02297 50.4999 4.73123 50.728 4.48309C50.956 4.23494 51.2276 4.04045 51.5428 3.89961C51.858 3.75206 52.2068 3.67829 52.589 3.67829C53.2329 3.67829 53.7661 3.90296 54.1886 4.35231V3.83925ZM57.2586 3.83925H59.0794V4.68428C59.2739 4.37578 59.512 4.14105 59.7937 3.98009C60.0754 3.81242 60.404 3.72859 60.7796 3.72859C60.8265 3.72859 60.8768 3.72859 60.9305 3.72859C60.9908 3.72859 61.0579 3.7353 61.1317 3.74871V5.48908C60.8902 5.36836 60.6287 5.308 60.347 5.308C59.9245 5.308 59.6059 5.43543 59.3913 5.69028C59.1834 5.93842 59.0794 6.30394 59.0794 6.78681V9H57.2586V3.83925ZM63.6937 6.40453C63.6937 6.5722 63.7239 6.72981 63.7843 6.87735C63.8446 7.01819 63.9251 7.14226 64.0257 7.24957C64.133 7.35688 64.2571 7.44071 64.3979 7.50107C64.5455 7.56143 64.7031 7.59161 64.8707 7.59161C65.0317 7.59161 65.1826 7.56143 65.3234 7.50107C65.471 7.44071 65.5951 7.35688 65.6957 7.24957C65.803 7.14226 65.8868 7.01819 65.9472 6.87735C66.0142 6.73651 66.0478 6.58561 66.0478 6.42465C66.0478 6.2637 66.0142 6.1128 65.9472 5.97196C65.8868 5.82441 65.803 5.69699 65.6957 5.58968C65.5951 5.48237 65.471 5.39854 65.3234 5.33818C65.1826 5.27782 65.0317 5.24764 64.8707 5.24764C64.7098 5.24764 64.5555 5.27782 64.408 5.33818C64.2671 5.39854 64.1431 5.48237 64.0358 5.58968C63.9352 5.69699 63.8513 5.82106 63.7843 5.9619C63.7239 6.09603 63.6937 6.24358 63.6937 6.40453ZM65.9874 0.650247H67.8183V9H65.9874V8.42658C65.5984 8.91617 65.0719 9.16096 64.408 9.16096C64.0324 9.16096 63.687 9.09054 63.3718 8.9497C63.0566 8.80886 62.7816 8.61437 62.5469 8.36622C62.3122 8.11808 62.1277 7.82634 61.9936 7.49101C61.8662 7.15568 61.8025 6.79352 61.8025 6.40453C61.8025 6.03567 61.8628 5.68693 61.9835 5.3583C62.111 5.02297 62.2887 4.73123 62.5167 4.48309C62.7447 4.23494 63.0164 4.04045 63.3316 3.89961C63.6535 3.75206 64.0056 3.67829 64.3879 3.67829C65.0317 3.67829 65.5649 3.90296 65.9874 4.35231V0.650247ZM70.7475 6.40453C70.7475 6.5722 70.7777 6.72981 70.838 6.87735C70.8984 7.01819 70.9789 7.14226 71.0795 7.24957C71.1868 7.35688 71.3108 7.44071 71.4517 7.50107C71.5992 7.56143 71.7568 7.59161 71.9245 7.59161C72.0855 7.59161 72.2364 7.56143 72.3772 7.50107C72.5247 7.44071 72.6488 7.35688 72.7494 7.24957C72.8567 7.14226 72.9405 7.01819 73.0009 6.87735C73.068 6.73651 73.1015 6.58561 73.1015 6.42465C73.1015 6.2637 73.068 6.1128 73.0009 5.97196C72.9405 5.82441 72.8567 5.69699 72.7494 5.58968C72.6488 5.48237 72.5247 5.39854 72.3772 5.33818C72.2364 5.27782 72.0855 5.24764 71.9245 5.24764C71.7568 5.24764 71.5992 5.27782 71.4517 5.33818C71.3108 5.39854 71.1868 5.48237 71.0795 5.58968C70.9789 5.69699 70.8984 5.82106 70.838 5.9619C70.7777 6.09603 70.7475 6.24358 70.7475 6.40453ZM73.0411 3.83925H74.8721V9H73.0411V8.42658C72.6522 8.91617 72.1257 9.16096 71.4617 9.16096C71.0862 9.16096 70.7408 9.09389 70.4256 8.95976C70.1104 8.81892 69.8354 8.62443 69.6006 8.37628C69.3659 8.12814 69.1815 7.8364 69.0473 7.50107C68.9199 7.16574 68.8562 6.80023 68.8562 6.40453C68.8562 6.03567 68.9199 5.68693 69.0473 5.3583C69.1748 5.02297 69.3525 4.73123 69.5805 4.48309C69.8086 4.23494 70.0802 4.04045 70.3954 3.89961C70.7106 3.75206 71.0593 3.67829 71.4416 3.67829C72.0855 3.67829 72.6186 3.90296 73.0411 4.35231V3.83925ZM36.4446 13.8392V19H34.6237V13.8392H36.4446ZM34.503 11.8574C34.503 11.7166 34.5298 11.5858 34.5835 11.4651C34.6371 11.3377 34.7109 11.227 34.8048 11.1331C34.8987 11.0392 35.006 10.9655 35.1267 10.9118C35.2541 10.8582 35.3883 10.8313 35.5291 10.8313C35.67 10.8313 35.8007 10.8582 35.9214 10.9118C36.0489 10.9655 36.1595 11.0392 36.2534 11.1331C36.3473 11.227 36.4211 11.3377 36.4747 11.4651C36.5284 11.5858 36.5552 11.7166 36.5552 11.8574C36.5552 11.9983 36.5284 12.1324 36.4747 12.2598C36.4211 12.3806 36.3473 12.4879 36.2534 12.5818C36.1595 12.6756 36.0489 12.7494 35.9214 12.8031C35.8007 12.8567 35.67 12.8836 35.5291 12.8836C35.3883 12.8836 35.2541 12.8567 35.1267 12.8031C35.006 12.7494 34.8987 12.6756 34.8048 12.5818C34.7109 12.4879 34.6371 12.3806 34.5835 12.2598C34.5298 12.1324 34.503 11.9983 34.503 11.8574ZM39.5097 10.6502V19H37.6889V10.6502H39.5097ZM46.2049 15.3583V19H44.3841V15.3583H43.7805V13.8392H44.3841V12.29H46.2049V13.8392H47.2411V15.3583H46.2049ZM47.9256 13.8392H49.7465V14.6843C49.941 14.3758 50.1791 14.141 50.4607 13.9801C50.7424 13.8124 51.071 13.7286 51.4466 13.7286C51.4936 13.7286 51.5439 13.7286 51.5975 13.7286C51.6579 13.7286 51.7249 13.7353 51.7987 13.7487V15.4891C51.5573 15.3684 51.2957 15.308 51.014 15.308C50.5915 15.308 50.273 15.4354 50.0583 15.6903C49.8504 15.9384 49.7465 16.3039 49.7465 16.7868V19H47.9256V13.8392ZM54.3608 16.4045C54.3608 16.5722 54.391 16.7298 54.4513 16.8774C54.5117 17.0182 54.5922 17.1423 54.6928 17.2496C54.8001 17.3569 54.9241 17.4407 55.065 17.5011C55.2125 17.5614 55.3701 17.5916 55.5378 17.5916C55.6987 17.5916 55.8496 17.5614 55.9905 17.5011C56.138 17.4407 56.2621 17.3569 56.3627 17.2496C56.47 17.1423 56.5538 17.0182 56.6142 16.8774C56.6813 16.7365 56.7148 16.5856 56.7148 16.4247C56.7148 16.2637 56.6813 16.1128 56.6142 15.972C56.5538 15.8244 56.47 15.697 56.3627 15.5897C56.2621 15.4824 56.138 15.3985 55.9905 15.3382C55.8496 15.2778 55.6987 15.2476 55.5378 15.2476C55.3701 15.2476 55.2125 15.2778 55.065 15.3382C54.9241 15.3985 54.8001 15.4824 54.6928 15.5897C54.5922 15.697 54.5117 15.8211 54.4513 15.9619C54.391 16.096 54.3608 16.2436 54.3608 16.4045ZM56.6544 13.8392H58.4854V19H56.6544V18.4266C56.2655 18.9162 55.739 19.161 55.075 19.161C54.6995 19.161 54.3541 19.0939 54.0389 18.9598C53.7236 18.8189 53.4487 18.6244 53.2139 18.3763C52.9792 18.1281 52.7948 17.8364 52.6606 17.5011C52.5332 17.1657 52.4695 16.8002 52.4695 16.4045C52.4695 16.0357 52.5332 15.6869 52.6606 15.3583C52.7881 15.023 52.9658 14.7312 53.1938 14.4831C53.4218 14.2349 53.6935 14.0404 54.0087 13.8996C54.3239 13.7521 54.6726 13.6783 55.0549 13.6783C55.6987 13.6783 56.2319 13.903 56.6544 14.3523V13.8392ZM61.5453 13.8392V19H59.7245V13.8392H61.5453ZM59.6037 11.8574C59.6037 11.7166 59.6306 11.5858 59.6842 11.4651C59.7379 11.3377 59.8116 11.227 59.9055 11.1331C59.9994 11.0392 60.1067 10.9655 60.2275 10.9118C60.3549 10.8582 60.489 10.8313 60.6298 10.8313C60.7707 10.8313 60.9015 10.8582 61.0222 10.9118C61.1496 10.9655 61.2603 11.0392 61.3542 11.1331C61.4481 11.227 61.5218 11.3377 61.5755 11.4651C61.6291 11.5858 61.656 11.7166 61.656 11.8574C61.656 11.9983 61.6291 12.1324 61.5755 12.2598C61.5218 12.3806 61.4481 12.4879 61.3542 12.5818C61.2603 12.6756 61.1496 12.7494 61.0222 12.8031C60.9015 12.8567 60.7707 12.8836 60.6298 12.8836C60.489 12.8836 60.3549 12.8567 60.2275 12.8031C60.1067 12.7494 59.9994 12.6756 59.9055 12.5818C59.8116 12.4879 59.7379 12.3806 59.6842 12.2598C59.6306 12.1324 59.6037 11.9983 59.6037 11.8574ZM64.6104 10.6502V19H62.7896V10.6502H64.6104ZM69.6272 15.6702C69.5669 15.4153 69.4428 15.2108 69.255 15.0565C69.0672 14.9022 68.8392 14.8251 68.5709 14.8251C68.2892 14.8251 68.0579 14.8989 67.8768 15.0464C67.7024 15.194 67.5917 15.4019 67.5448 15.6702H69.6272ZM67.4945 16.7265C67.4945 17.5111 67.8634 17.9035 68.6011 17.9035C68.9968 17.9035 69.2952 17.7425 69.4964 17.4206H71.2569C70.9015 18.601 70.0128 19.1911 68.591 19.1911C68.1551 19.1911 67.7561 19.1274 67.3939 19C67.0317 18.8659 66.7199 18.6781 66.4583 18.4366C66.2035 18.1952 66.0056 17.9068 65.8648 17.5715C65.724 17.2362 65.6535 16.8606 65.6535 16.4448C65.6535 16.0156 65.7206 15.6299 65.8547 15.2879C65.9889 14.9391 66.18 14.644 66.4281 14.4026C66.6763 14.1612 66.9747 13.9767 67.3235 13.8493C67.6789 13.7152 68.078 13.6481 68.5206 13.6481C68.9565 13.6481 69.3489 13.7152 69.6976 13.8493C70.0464 13.9767 70.3415 14.1645 70.5829 14.4127C70.8243 14.6608 71.0088 14.966 71.1362 15.3281C71.2636 15.6836 71.3273 16.086 71.3273 16.5353V16.7265H67.4945ZM72.3682 13.8392H74.189V14.6843C74.3835 14.3758 74.6216 14.141 74.9033 13.9801C75.1849 13.8124 75.5136 13.7286 75.8891 13.7286C75.9361 13.7286 75.9864 13.7286 76.04 13.7286C76.1004 13.7286 76.1675 13.7353 76.2412 13.7487V15.4891C75.9998 15.3684 75.7382 15.308 75.4566 15.308C75.034 15.308 74.7155 15.4354 74.5009 15.6903C74.293 15.9384 74.189 16.3039 74.189 16.7868V19H72.3682V13.8392Z" fill="black"/>
</svg>
